<svg xmlns="http://www.w3.org/2000/svg" xmlns:xlink="http://www.w3.org/1999/xlink" contentStyleType="text/css" data-diagram-type="CLASS" height="515.4px" preserveAspectRatio="none" style="width:1050px;height:515px;background:#FFFFFF;" version="1.1" viewBox="0 0 1050 515" width="1050.6px" zoomAndPan="magnify"><title>Item Structure</title><defs/><g><g class="title" data-source-line="4"><text fill="#000000" font-family="sans-serif" font-size="8.4" font-weight="bold" lengthAdjust="spacing" textLength="56.9461" x="492.7673" y="15.1424">Item Structure</text></g><!--class game.entities.items.Watermelon--><g class="entity" data-entity="game.entities.items.Watermelon" data-source-line="7" data-uid="ent0002" id="entity_game.entities.items.Watermelon"><rect fill="#F1F1F1" height="28.8" rx="1.5" ry="1.5" style="stroke:#181818;stroke-width:0.3;" width="139.1789" x="476.7" y="37.6506"/><ellipse cx="485.7" cy="47.2506" fill="#ADD1B2" rx="6.6" ry="6.6" style="stroke:#181818;stroke-width:0.6;"/><path d="M487.3594,44.7756 Q487.4531,44.6443 487.5656,44.5787 Q487.6781,44.5131 487.8094,44.5131 Q488.0344,44.5131 488.175,44.6725 Q488.3156,44.8225 488.3156,45.1881 L488.3156,46.06 Q488.3156,46.4256 488.175,46.585 Q488.0344,46.7443 487.8094,46.7443 Q487.6031,46.7443 487.4813,46.6225 Q487.3594,46.51 487.2938,46.2006 Q487.2656,45.985 487.1531,45.8725 Q486.9562,45.6475 486.5906,45.5162 Q486.225,45.385 485.85,45.385 Q485.3906,45.385 485.0062,45.5818 Q484.6312,45.7787 484.3312,46.2287 Q484.0406,46.6787 484.0406,47.2975 L484.0406,47.9537 Q484.0406,48.6943 484.575,49.1912 Q485.1094,49.6787 486.0656,49.6787 Q486.6281,49.6787 487.0219,49.5287 Q487.2562,49.435 487.5094,49.1725 Q487.6688,49.0131 487.7531,48.9662 Q487.8469,48.9193 487.9688,48.9193 Q488.1656,48.9193 488.3156,49.0787 Q488.475,49.2287 488.475,49.435 Q488.475,49.6412 488.2687,49.885 Q487.9688,50.2318 487.4906,50.4287 Q486.8438,50.7006 486.0656,50.7006 Q485.1563,50.7006 484.4344,50.3256 Q483.8438,50.0256 483.4313,49.3881 Q483.0187,48.7412 483.0187,47.9725 L483.0187,47.2787 Q483.0187,46.4818 483.3844,45.7975 Q483.7594,45.1037 484.4156,44.7381 Q485.0719,44.3631 485.8125,44.3631 Q486.2531,44.3631 486.6375,44.4662 Q487.0313,44.56 487.3594,44.7756 Z " fill="#000000"/><text fill="#000000" font-family="sans-serif" font-size="8.4" lengthAdjust="spacing" textLength="119.9789" x="494.1" y="50.7677">game.entities.items.Watermelon</text><line style="stroke:#181818;stroke-width:0.3;" x1="477.3" x2="615.2789" y1="56.8506" y2="56.8506"/><line style="stroke:#181818;stroke-width:0.3;" x1="477.3" x2="615.2789" y1="61.6506" y2="61.6506"/></g><!--class game.entities.MovingEntity--><g class="entity" data-entity="game.entities.MovingEntity" data-source-line="9" data-uid="ent0003" id="entity_game.entities.MovingEntity"><rect fill="#F1F1F1" height="28.8" rx="1.5" ry="1.5" style="stroke:#181818;stroke-width:0.3;" width="119.5816" x="149.4" y="87.4506"/><ellipse cx="158.4" cy="97.0506" fill="#A9DCDF" rx="6.6" ry="6.6" style="stroke:#181818;stroke-width:0.6;"/><path d="M159.7125,98.11 L157.2281,98.11 L156.975,98.7287 L157.2281,98.7287 Q157.5938,98.7287 157.7531,98.8693 Q157.9125,99.01 157.9125,99.2443 Q157.9125,99.4693 157.7531,99.61 Q157.5938,99.7506 157.2281,99.7506 L155.85,99.7506 Q155.4844,99.7506 155.3344,99.61 Q155.175,99.4693 155.175,99.235 Q155.175,99.01 155.3438,98.8693 Q155.5031,98.7193 155.8781,98.7287 L157.4813,94.735 L156.8156,94.735 Q156.45,94.735 156.2906,94.5943 Q156.1313,94.4537 156.1313,94.2193 Q156.1313,93.9943 156.2906,93.8537 Q156.45,93.7131 156.8156,93.7131 L159.0187,93.7131 L161.0531,98.7287 Q161.4094,98.7287 161.5219,98.8131 Q161.7563,98.9725 161.7563,99.2443 Q161.7563,99.4693 161.5969,99.61 Q161.4469,99.7506 161.0812,99.7506 L159.7031,99.7506 Q159.3375,99.7506 159.1781,99.61 Q159.0187,99.4693 159.0187,99.235 Q159.0187,99.01 159.1781,98.8693 Q159.3375,98.7287 159.7031,98.7287 L159.9562,98.7287 L159.7125,98.11 Z M159.2813,97.0881 L158.4656,95.0631 L157.6406,97.0881 L159.2813,97.0881 Z " fill="#000000"/><text fill="#000000" font-family="sans-serif" font-size="8.4" font-style="italic" lengthAdjust="spacing" textLength="100.3816" x="166.8" y="100.5677">game.entities.MovingEntity</text><line style="stroke:#181818;stroke-width:0.3;" x1="150" x2="268.3816" y1="106.6506" y2="106.6506"/><line style="stroke:#181818;stroke-width:0.3;" x1="150" x2="268.3816" y1="111.4506" y2="111.4506"/></g><!--class game.entities.items.SpeedUp--><g class="entity" data-entity="game.entities.items.SpeedUp" data-source-line="11" data-uid="ent0004" id="entity_game.entities.items.SpeedUp"><rect fill="#F1F1F1" height="28.8" rx="1.5" ry="1.5" style="stroke:#181818;stroke-width:0.3;" width="128.925" x="703.8" y="98.8506"/><ellipse cx="712.8" cy="108.4506" fill="#ADD1B2" rx="6.6" ry="6.6" style="stroke:#181818;stroke-width:0.6;"/><path d="M714.4594,105.9756 Q714.5531,105.8443 714.6656,105.7787 Q714.7781,105.7131 714.9094,105.7131 Q715.1344,105.7131 715.275,105.8725 Q715.4156,106.0225 715.4156,106.3881 L715.4156,107.26 Q715.4156,107.6256 715.275,107.785 Q715.1344,107.9443 714.9094,107.9443 Q714.7031,107.9443 714.5813,107.8225 Q714.4594,107.71 714.3938,107.4006 Q714.3656,107.185 714.2531,107.0725 Q714.0563,106.8475 713.6906,106.7162 Q713.325,106.585 712.95,106.585 Q712.4906,106.585 712.1062,106.7818 Q711.7312,106.9787 711.4313,107.4287 Q711.1406,107.8787 711.1406,108.4975 L711.1406,109.1537 Q711.1406,109.8943 711.675,110.3912 Q712.2094,110.8787 713.1656,110.8787 Q713.7281,110.8787 714.1219,110.7287 Q714.3562,110.635 714.6094,110.3725 Q714.7688,110.2131 714.8531,110.1662 Q714.9469,110.1193 715.0688,110.1193 Q715.2656,110.1193 715.4156,110.2787 Q715.575,110.4287 715.575,110.635 Q715.575,110.8412 715.3688,111.085 Q715.0688,111.4318 714.5906,111.6287 Q713.9438,111.9006 713.1656,111.9006 Q712.2563,111.9006 711.5344,111.5256 Q710.9438,111.2256 710.5313,110.5881 Q710.1188,109.9412 710.1188,109.1725 L710.1188,108.4787 Q710.1188,107.6818 710.4844,106.9975 Q710.8594,106.3037 711.5156,105.9381 Q712.1719,105.5631 712.9125,105.5631 Q713.3531,105.5631 713.7375,105.6662 Q714.1313,105.76 714.4594,105.9756 Z " fill="#000000"/><text fill="#000000" font-family="sans-serif" font-size="8.4" lengthAdjust="spacing" textLength="109.725" x="721.2" y="111.9677">game.entities.items.SpeedUp</text><line style="stroke:#181818;stroke-width:0.3;" x1="704.4" x2="832.125" y1="118.0506" y2="118.0506"/><line style="stroke:#181818;stroke-width:0.3;" x1="704.4" x2="832.125" y1="122.8506" y2="122.8506"/></g><!--class game.entities.items.Demon--><g class="entity" data-entity="game.entities.items.Demon" data-source-line="13" data-uid="ent0005" id="entity_game.entities.items.Demon"><rect fill="#F1F1F1" height="28.8" rx="1.5" ry="1.5" style="stroke:#181818;stroke-width:0.3;" width="120.9762" x="707.7" y="148.6506"/><ellipse cx="716.7" cy="158.2506" fill="#ADD1B2" rx="6.6" ry="6.6" style="stroke:#181818;stroke-width:0.6;"/><path d="M718.3594,155.7756 Q718.4531,155.6443 718.5656,155.5787 Q718.6781,155.5131 718.8094,155.5131 Q719.0344,155.5131 719.175,155.6725 Q719.3156,155.8225 719.3156,156.1881 L719.3156,157.06 Q719.3156,157.4256 719.175,157.585 Q719.0344,157.7443 718.8094,157.7443 Q718.6031,157.7443 718.4812,157.6225 Q718.3594,157.51 718.2937,157.2006 Q718.2656,156.985 718.1531,156.8725 Q717.9563,156.6475 717.5906,156.5162 Q717.225,156.385 716.85,156.385 Q716.3906,156.385 716.0063,156.5818 Q715.6313,156.7787 715.3313,157.2287 Q715.0406,157.6787 715.0406,158.2975 L715.0406,158.9537 Q715.0406,159.6943 715.575,160.1912 Q716.1094,160.6787 717.0656,160.6787 Q717.6281,160.6787 718.0219,160.5287 Q718.2563,160.435 718.5094,160.1725 Q718.6687,160.0131 718.7531,159.9662 Q718.8469,159.9193 718.9688,159.9193 Q719.1656,159.9193 719.3156,160.0787 Q719.475,160.2287 719.475,160.435 Q719.475,160.6412 719.2688,160.885 Q718.9688,161.2318 718.4906,161.4287 Q717.8438,161.7006 717.0656,161.7006 Q716.1563,161.7006 715.4344,161.3256 Q714.8438,161.0256 714.4313,160.3881 Q714.0188,159.7412 714.0188,158.9725 L714.0188,158.2787 Q714.0188,157.4818 714.3844,156.7975 Q714.7594,156.1037 715.4156,155.7381 Q716.0719,155.3631 716.8125,155.3631 Q717.2531,155.3631 717.6375,155.4662 Q718.0313,155.56 718.3594,155.7756 Z " fill="#000000"/><text fill="#000000" font-family="sans-serif" font-size="8.4" lengthAdjust="spacing" textLength="101.7762" x="725.1" y="161.7677">game.entities.items.Demon</text><line style="stroke:#181818;stroke-width:0.3;" x1="708.3" x2="828.0762" y1="167.8506" y2="167.8506"/><line style="stroke:#181818;stroke-width:0.3;" x1="708.3" x2="828.0762" y1="172.6506" y2="172.6506"/></g><!--class game.entities.items.Item--><g class="entity" data-entity="game.entities.items.Item" data-source-line="15" data-uid="ent0006" id="entity_game.entities.items.Item"><rect fill="#F1F1F1" height="96.3035" rx="1.5" ry="1.5" style="stroke:#181818;stroke-width:0.3;" width="113.652" x="312" y="78.1506"/><ellipse cx="322.538" cy="87.7506" fill="#A9DCDF" rx="6.6" ry="6.6" style="stroke:#181818;stroke-width:0.6;"/><path d="M323.8505,88.81 L321.3661,88.81 L321.113,89.4287 L321.3661,89.4287 Q321.7317,89.4287 321.8911,89.5693 Q322.0505,89.71 322.0505,89.9443 Q322.0505,90.1693 321.8911,90.31 Q321.7317,90.4506 321.3661,90.4506 L319.988,90.4506 Q319.6224,90.4506 319.4724,90.31 Q319.313,90.1693 319.313,89.935 Q319.313,89.71 319.4817,89.5693 Q319.6411,89.4193 320.0161,89.4287 L321.6192,85.435 L320.9536,85.435 Q320.588,85.435 320.4286,85.2943 Q320.2692,85.1537 320.2692,84.9193 Q320.2692,84.6943 320.4286,84.5537 Q320.588,84.4131 320.9536,84.4131 L323.1567,84.4131 L325.1911,89.4287 Q325.5474,89.4287 325.6599,89.5131 Q325.8942,89.6725 325.8942,89.9443 Q325.8942,90.1693 325.7349,90.31 Q325.5849,90.4506 325.2192,90.4506 L323.8411,90.4506 Q323.4755,90.4506 323.3161,90.31 Q323.1567,90.1693 323.1567,89.935 Q323.1567,89.71 323.3161,89.5693 Q323.4755,89.4287 323.8411,89.4287 L324.0942,89.4287 L323.8505,88.81 Z M323.4192,87.7881 L322.6036,85.7631 L321.7786,87.7881 L323.4192,87.7881 Z " fill="#000000"/><text fill="#000000" font-family="sans-serif" font-size="8.4" font-style="italic" lengthAdjust="spacing" textLength="91.0342" x="331.2798" y="91.2677">game.entities.items.Item</text><line style="stroke:#181818;stroke-width:0.3;" x1="312.6" x2="425.052" y1="97.3506" y2="97.3506"/><polygon fill="none" points="318.6,103.2759,321,105.6759,318.6,108.0759,316.2,105.6759" style="stroke:#B38D22;stroke-width:0.6;"/><text fill="#000000" font-family="sans-serif" font-size="8.4" lengthAdjust="spacing" textLength="77.9748" x="324" y="108.893">BufferedImage sprite</text><polygon fill="none" points="318.6,114.5265,321,116.9265,318.6,119.3265,316.2,116.9265" style="stroke:#B38D22;stroke-width:0.6;"/><text fill="#000000" font-family="sans-serif" font-size="8.4" lengthAdjust="spacing" textLength="29.4205" x="324" y="120.1436">int point</text><line style="stroke:#181818;stroke-width:0.3;" x1="312.6" x2="425.052" y1="124.6518" y2="124.6518"/><ellipse cx="318.6" cy="133.5771" fill="#84BE84" rx="1.8" ry="1.8" style="stroke:#038048;stroke-width:0.6;"/><text fill="#000000" font-family="sans-serif" font-size="8.4" lengthAdjust="spacing" textLength="91.9693" x="324" y="136.1941">void render(Graphics2D)</text><ellipse cx="318.6" cy="144.8276" fill="#84BE84" rx="1.8" ry="1.8" style="stroke:#038048;stroke-width:0.6;"/><text fill="#000000" font-family="sans-serif" font-size="8.4" lengthAdjust="spacing" textLength="62.5611" x="324" y="147.4447">void setPoint(int)</text><ellipse cx="318.6" cy="156.0782" fill="#84BE84" rx="1.8" ry="1.8" style="stroke:#038048;stroke-width:0.6;"/><text fill="#000000" font-family="sans-serif" font-size="8.4" lengthAdjust="spacing" textLength="47.6232" x="324" y="158.6953">int getPoint()</text><ellipse cx="318.6" cy="167.3288" fill="#84BE84" rx="1.8" ry="1.8" style="stroke:#038048;stroke-width:0.6;"/><text fill="#000000" font-family="sans-serif" font-size="8.4" lengthAdjust="spacing" textLength="98.052" x="324" y="169.9459">BufferedImage getImage()</text></g><!--class game.entities.items.Apple--><g class="entity" data-entity="game.entities.items.Apple" data-source-line="23" data-uid="ent0007" id="entity_game.entities.items.Apple"><rect fill="#F1F1F1" height="28.8" rx="1.5" ry="1.5" style="stroke:#181818;stroke-width:0.3;" width="115.3816" x="488.7" y="87.4506"/><ellipse cx="497.7" cy="97.0506" fill="#ADD1B2" rx="6.6" ry="6.6" style="stroke:#181818;stroke-width:0.6;"/><path d="M499.3594,94.5756 Q499.4531,94.4443 499.5656,94.3787 Q499.6781,94.3131 499.8094,94.3131 Q500.0344,94.3131 500.175,94.4725 Q500.3156,94.6225 500.3156,94.9881 L500.3156,95.86 Q500.3156,96.2256 500.175,96.385 Q500.0344,96.5443 499.8094,96.5443 Q499.6031,96.5443 499.4813,96.4225 Q499.3594,96.31 499.2938,96.0006 Q499.2656,95.785 499.1531,95.6725 Q498.9562,95.4475 498.5906,95.3162 Q498.225,95.185 497.85,95.185 Q497.3906,95.185 497.0062,95.3818 Q496.6312,95.5787 496.3312,96.0287 Q496.0406,96.4787 496.0406,97.0975 L496.0406,97.7537 Q496.0406,98.4943 496.575,98.9912 Q497.1094,99.4787 498.0656,99.4787 Q498.6281,99.4787 499.0219,99.3287 Q499.2562,99.235 499.5094,98.9725 Q499.6688,98.8131 499.7531,98.7662 Q499.8469,98.7193 499.9688,98.7193 Q500.1656,98.7193 500.3156,98.8787 Q500.475,99.0287 500.475,99.235 Q500.475,99.4412 500.2687,99.685 Q499.9688,100.0318 499.4906,100.2287 Q498.8438,100.5006 498.0656,100.5006 Q497.1563,100.5006 496.4344,100.1256 Q495.8438,99.8256 495.4313,99.1881 Q495.0187,98.5412 495.0187,97.7725 L495.0187,97.0787 Q495.0187,96.2818 495.3844,95.5975 Q495.7594,94.9037 496.4156,94.5381 Q497.0719,94.1631 497.8125,94.1631 Q498.2531,94.1631 498.6375,94.2662 Q499.0313,94.36 499.3594,94.5756 Z " fill="#000000"/><text fill="#000000" font-family="sans-serif" font-size="8.4" lengthAdjust="spacing" textLength="96.1816" x="506.1" y="100.5677">game.entities.items.Apple</text><line style="stroke:#181818;stroke-width:0.3;" x1="489.3" x2="603.4816" y1="106.6506" y2="106.6506"/><line style="stroke:#181818;stroke-width:0.3;" x1="489.3" x2="603.4816" y1="111.4506" y2="111.4506"/></g><!--class game.entities.items.Banana--><g class="entity" data-entity="game.entities.items.Banana" data-source-line="26" data-uid="ent0008" id="entity_game.entities.items.Banana"><rect fill="#F1F1F1" height="28.8" rx="1.5" ry="1.5" style="stroke:#181818;stroke-width:0.3;" width="122.8588" x="706.8" y="198.4506"/><ellipse cx="715.8" cy="208.0506" fill="#ADD1B2" rx="6.6" ry="6.6" style="stroke:#181818;stroke-width:0.6;"/><path d="M717.4594,205.5756 Q717.5531,205.4443 717.6656,205.3787 Q717.7781,205.3131 717.9094,205.3131 Q718.1344,205.3131 718.275,205.4725 Q718.4156,205.6225 718.4156,205.9881 L718.4156,206.86 Q718.4156,207.2256 718.275,207.385 Q718.1344,207.5443 717.9094,207.5443 Q717.7031,207.5443 717.5813,207.4225 Q717.4594,207.31 717.3938,207.0006 Q717.3656,206.785 717.2531,206.6725 Q717.0563,206.4475 716.6906,206.3162 Q716.325,206.185 715.95,206.185 Q715.4906,206.185 715.1062,206.3818 Q714.7312,206.5787 714.4313,207.0287 Q714.1406,207.4787 714.1406,208.0975 L714.1406,208.7537 Q714.1406,209.4943 714.675,209.9912 Q715.2094,210.4787 716.1656,210.4787 Q716.7281,210.4787 717.1219,210.3287 Q717.3562,210.235 717.6094,209.9725 Q717.7688,209.8131 717.8531,209.7662 Q717.9469,209.7193 718.0688,209.7193 Q718.2656,209.7193 718.4156,209.8787 Q718.575,210.0287 718.575,210.235 Q718.575,210.4412 718.3688,210.685 Q718.0688,211.0318 717.5906,211.2287 Q716.9438,211.5006 716.1656,211.5006 Q715.2563,211.5006 714.5344,211.1256 Q713.9438,210.8256 713.5313,210.1881 Q713.1188,209.5412 713.1188,208.7725 L713.1188,208.0787 Q713.1188,207.2818 713.4844,206.5975 Q713.8594,205.9037 714.5156,205.5381 Q715.1719,205.1631 715.9125,205.1631 Q716.3531,205.1631 716.7375,205.2662 Q717.1313,205.36 717.4594,205.5756 Z " fill="#000000"/><text fill="#000000" font-family="sans-serif" font-size="8.4" lengthAdjust="spacing" textLength="103.6588" x="724.2" y="211.5677">game.entities.items.Banana</text><line style="stroke:#181818;stroke-width:0.3;" x1="707.4" x2="829.0588" y1="217.6506" y2="217.6506"/><line style="stroke:#181818;stroke-width:0.3;" x1="707.4" x2="829.0588" y1="222.4506" y2="222.4506"/></g><!--class game.entities.items.Cherry--><g class="entity" data-entity="game.entities.items.Cherry" data-source-line="29" data-uid="ent0009" id="entity_game.entities.items.Cherry"><rect fill="#F1F1F1" height="28.8" rx="1.5" ry="1.5" style="stroke:#181818;stroke-width:0.3;" width="119.1018" x="486.6" y="137.2506"/><ellipse cx="495.6" cy="146.8506" fill="#ADD1B2" rx="6.6" ry="6.6" style="stroke:#181818;stroke-width:0.6;"/><path d="M497.2594,144.3756 Q497.3531,144.2443 497.4656,144.1787 Q497.5781,144.1131 497.7094,144.1131 Q497.9344,144.1131 498.075,144.2725 Q498.2156,144.4225 498.2156,144.7881 L498.2156,145.66 Q498.2156,146.0256 498.075,146.185 Q497.9344,146.3443 497.7094,146.3443 Q497.5031,146.3443 497.3812,146.2225 Q497.2594,146.11 497.1937,145.8006 Q497.1656,145.585 497.0531,145.4725 Q496.8563,145.2475 496.4906,145.1162 Q496.125,144.985 495.75,144.985 Q495.2906,144.985 494.9063,145.1818 Q494.5313,145.3787 494.2313,145.8287 Q493.9406,146.2787 493.9406,146.8975 L493.9406,147.5537 Q493.9406,148.2943 494.475,148.7912 Q495.0094,149.2787 495.9656,149.2787 Q496.5281,149.2787 496.9219,149.1287 Q497.1563,149.035 497.4094,148.7725 Q497.5687,148.6131 497.6531,148.5662 Q497.7469,148.5193 497.8688,148.5193 Q498.0656,148.5193 498.2156,148.6787 Q498.375,148.8287 498.375,149.035 Q498.375,149.2412 498.1688,149.485 Q497.8688,149.8318 497.3906,150.0287 Q496.7438,150.3006 495.9656,150.3006 Q495.0563,150.3006 494.3344,149.9256 Q493.7438,149.6256 493.3312,148.9881 Q492.9188,148.3412 492.9188,147.5725 L492.9188,146.8787 Q492.9188,146.0818 493.2844,145.3975 Q493.6594,144.7037 494.3156,144.3381 Q494.9719,143.9631 495.7125,143.9631 Q496.1531,143.9631 496.5375,144.0662 Q496.9313,144.16 497.2594,144.3756 Z " fill="#000000"/><text fill="#000000" font-family="sans-serif" font-size="8.4" lengthAdjust="spacing" textLength="99.9018" x="504" y="150.3677">game.entities.items.Cherry</text><line style="stroke:#181818;stroke-width:0.3;" x1="487.2" x2="605.1018" y1="156.4506" y2="156.4506"/><line style="stroke:#181818;stroke-width:0.3;" x1="487.2" x2="605.1018" y1="161.2506" y2="161.2506"/></g><!--class game.entities.Entity--><g class="entity" data-entity="game.entities.Entity" data-source-line="32" data-uid="ent0010" id="entity_game.entities.Entity"><rect fill="#F1F1F1" height="197.5588" rx="1.5" ry="1.5" style="stroke:#181818;stroke-width:0.3;" width="107.5693" x="5.4" y="93.1506"/><ellipse cx="21.1798" cy="102.7506" fill="#A9DCDF" rx="6.6" ry="6.6" style="stroke:#181818;stroke-width:0.6;"/><path d="M22.4923,103.81 L20.0079,103.81 L19.7548,104.4287 L20.0079,104.4287 Q20.3735,104.4287 20.5329,104.5693 Q20.6923,104.71 20.6923,104.9443 Q20.6923,105.1693 20.5329,105.31 Q20.3735,105.4506 20.0079,105.4506 L18.6298,105.4506 Q18.2642,105.4506 18.1142,105.31 Q17.9548,105.1693 17.9548,104.935 Q17.9548,104.71 18.1235,104.5693 Q18.2829,104.4193 18.6579,104.4287 L20.261,100.435 L19.5954,100.435 Q19.2298,100.435 19.0704,100.2943 Q18.911,100.1537 18.911,99.9193 Q18.911,99.6943 19.0704,99.5537 Q19.2298,99.4131 19.5954,99.4131 L21.7985,99.4131 L23.8329,104.4287 Q24.1892,104.4287 24.3017,104.5131 Q24.536,104.6725 24.536,104.9443 Q24.536,105.1693 24.3767,105.31 Q24.2267,105.4506 23.861,105.4506 L22.4829,105.4506 Q22.1173,105.4506 21.9579,105.31 Q21.7985,105.1693 21.7985,104.935 Q21.7985,104.71 21.9579,104.5693 Q22.1173,104.4287 22.4829,104.4287 L22.736,104.4287 L22.4923,103.81 Z M22.061,102.7881 L21.2454,100.7631 L20.4204,102.7881 L22.061,102.7881 Z " fill="#000000"/><text fill="#000000" font-family="sans-serif" font-size="8.4" font-style="italic" lengthAdjust="spacing" textLength="73.3031" x="31.0864" y="106.2677">game.entities.Entity</text><line style="stroke:#181818;stroke-width:0.3;" x1="6" x2="112.3693" y1="112.3506" y2="112.3506"/><polygon fill="none" points="12,118.2759,14.4,120.6759,12,123.0759,9.6,120.6759" style="stroke:#B38D22;stroke-width:0.6;"/><text fill="#000000" font-family="sans-serif" font-size="8.4" lengthAdjust="spacing" textLength="26.1434" x="17.4" y="123.893">int size</text><polygon fill="none" points="12,129.5265,14.4,131.9265,12,134.3265,9.6,131.9265" style="stroke:#B38D22;stroke-width:0.6;"/><text fill="#000000" font-family="sans-serif" font-size="8.4" lengthAdjust="spacing" textLength="29.8799" x="17.4" y="135.1436">int xPos</text><polygon fill="none" points="12,140.7771,14.4,143.1771,12,145.5771,9.6,143.1771" style="stroke:#B38D22;stroke-width:0.6;"/><text fill="#000000" font-family="sans-serif" font-size="8.4" lengthAdjust="spacing" textLength="29.8799" x="17.4" y="146.3941">int yPos</text><rect fill="none" height="3.6" style="stroke:#C82930;stroke-width:0.6;" width="3.6" x="10.2" y="153.2276"/><text fill="#000000" font-family="sans-serif" font-size="8.4" lengthAdjust="spacing" textLength="27.5461" x="17.4" y="157.6447">int initX</text><rect fill="none" height="3.6" style="stroke:#C82930;stroke-width:0.6;" width="3.6" x="10.2" y="164.4782"/><text fill="#000000" font-family="sans-serif" font-size="8.4" lengthAdjust="spacing" textLength="27.5461" x="17.4" y="168.8953">int initY</text><polygon fill="none" points="12,174.5288,14.4,176.9288,12,179.3288,9.6,176.9288" style="stroke:#B38D22;stroke-width:0.6;"/><text fill="#000000" font-family="sans-serif" font-size="8.4" lengthAdjust="spacing" textLength="69.1195" x="17.4" y="180.1459">boolean destroyed</text><line style="stroke:#181818;stroke-width:0.3;" x1="6" x2="112.3693" y1="184.6541" y2="184.6541"/><ellipse cx="12" cy="193.5794" fill="#84BE84" rx="1.8" ry="1.8" style="stroke:#038048;stroke-width:0.6;"/><text fill="#000000" font-family="sans-serif" font-size="8.4" lengthAdjust="spacing" textLength="49.0301" x="17.4" y="196.1965">void update()</text><ellipse cx="12" cy="204.83" fill="#84BE84" rx="1.8" ry="1.8" style="stroke:#038048;stroke-width:0.6;"/><text fill="#000000" font-family="sans-serif" font-size="8.4" lengthAdjust="spacing" textLength="91.9693" x="17.4" y="207.4471">void render(Graphics2D)</text><ellipse cx="12" cy="216.0806" fill="#84BE84" rx="1.8" ry="1.8" style="stroke:#038048;stroke-width:0.6;"/><text fill="#000000" font-family="sans-serif" font-size="8.4" lengthAdjust="spacing" textLength="50.884" x="17.4" y="218.6977">void destroy()</text><ellipse cx="12" cy="227.3312" fill="#84BE84" rx="1.8" ry="1.8" style="stroke:#038048;stroke-width:0.6;"/><text fill="#000000" font-family="sans-serif" font-size="8.4" lengthAdjust="spacing" textLength="82.1748" x="17.4" y="229.9482">boolean isDestroyed()</text><ellipse cx="12" cy="238.5817" fill="#84BE84" rx="1.8" ry="1.8" style="stroke:#038048;stroke-width:0.6;"/><text fill="#000000" font-family="sans-serif" font-size="8.4" lengthAdjust="spacing" textLength="56.4867" x="17.4" y="241.1988">void resetPos()</text><ellipse cx="12" cy="249.8323" fill="#84BE84" rx="1.8" ry="1.8" style="stroke:#038048;stroke-width:0.6;"/><text fill="#000000" font-family="sans-serif" font-size="8.4" lengthAdjust="spacing" textLength="44.8178" x="17.4" y="252.4494">int getSize()</text><ellipse cx="12" cy="261.0829" fill="#84BE84" rx="1.8" ry="1.8" style="stroke:#038048;stroke-width:0.6;"/><text fill="#000000" font-family="sans-serif" font-size="8.4" lengthAdjust="spacing" textLength="47.1516" x="17.4" y="263.7">int getxPos()</text><ellipse cx="12" cy="272.3335" fill="#84BE84" rx="1.8" ry="1.8" style="stroke:#038048;stroke-width:0.6;"/><text fill="#000000" font-family="sans-serif" font-size="8.4" lengthAdjust="spacing" textLength="47.1516" x="17.4" y="274.9506">int getyPos()</text><ellipse cx="12" cy="283.5841" fill="#84BE84" rx="1.8" ry="1.8" style="stroke:#038048;stroke-width:0.6;"/><text fill="#000000" font-family="sans-serif" font-size="8.4" font-style="italic" lengthAdjust="spacing" textLength="81.2396" x="17.4" y="286.2012">Rectangle getHitbox()</text></g><!--class game.entities.items.EffectItem--><g class="entity" data-entity="game.entities.items.EffectItem" data-source-line="50" data-uid="ent0011" id="entity_game.entities.items.EffectItem"><rect fill="#F1F1F1" height="51.3012" rx="1.5" ry="1.5" style="stroke:#181818;stroke-width:0.3;" width="155.652" x="468.6" y="187.0506"/><ellipse cx="488.3739" cy="196.6506" fill="#A9DCDF" rx="6.6" ry="6.6" style="stroke:#181818;stroke-width:0.6;"/><path d="M489.6864,197.71 L487.202,197.71 L486.9489,198.3287 L487.202,198.3287 Q487.5676,198.3287 487.727,198.4693 Q487.8864,198.61 487.8864,198.8443 Q487.8864,199.0693 487.727,199.21 Q487.5676,199.3506 487.202,199.3506 L485.8239,199.3506 Q485.4583,199.3506 485.3083,199.21 Q485.1489,199.0693 485.1489,198.835 Q485.1489,198.61 485.3176,198.4693 Q485.477,198.3193 485.852,198.3287 L487.4551,194.335 L486.7895,194.335 Q486.4239,194.335 486.2645,194.1943 Q486.1051,194.0537 486.1051,193.8193 Q486.1051,193.5943 486.2645,193.4537 Q486.4239,193.3131 486.7895,193.3131 L488.9926,193.3131 L491.027,198.3287 Q491.3833,198.3287 491.4958,198.4131 Q491.7301,198.5725 491.7301,198.8443 Q491.7301,199.0693 491.5708,199.21 Q491.4208,199.3506 491.0551,199.3506 L489.677,199.3506 Q489.3114,199.3506 489.152,199.21 Q488.9926,199.0693 488.9926,198.835 Q488.9926,198.61 489.152,198.4693 Q489.3114,198.3287 489.677,198.3287 L489.9301,198.3287 L489.6864,197.71 Z M489.2551,196.6881 L488.4395,194.6631 L487.6145,196.6881 L489.2551,196.6881 Z " fill="#000000"/><text fill="#000000" font-family="sans-serif" font-size="8.4" font-style="italic" lengthAdjust="spacing" textLength="112.51" x="499.1681" y="200.1677">game.entities.items.EffectItem</text><line style="stroke:#181818;stroke-width:0.3;" x1="469.2" x2="623.652" y1="206.2506" y2="206.2506"/><polygon fill="none" points="475.2,212.1759,477.6,214.5759,475.2,216.9759,472.8,214.5759" style="stroke:#B38D22;stroke-width:0.6;"/><text fill="#000000" font-family="sans-serif" font-size="8.4" lengthAdjust="spacing" textLength="121.8492" x="480.6" y="217.793">EffectCommand effectCommand</text><line style="stroke:#181818;stroke-width:0.3;" x1="469.2" x2="623.652" y1="222.3012" y2="222.3012"/><ellipse cx="475.2" cy="231.2265" fill="#84BE84" rx="1.8" ry="1.8" style="stroke:#038048;stroke-width:0.6;"/><text fill="#000000" font-family="sans-serif" font-size="8.4" lengthAdjust="spacing" textLength="140.052" x="480.6" y="233.8436">EffectCommand getEffectCommand()</text></g><!--class game.entities.StaticEntity--><g class="entity" data-entity="game.entities.StaticEntity" data-source-line="55" data-uid="ent0012" id="entity_game.entities.StaticEntity"><rect fill="#F1F1F1" height="51.3012" rx="1.5" ry="1.5" style="stroke:#181818;stroke-width:0.3;" width="113.5113" x="152.4" y="196.0506"/><ellipse cx="161.4" cy="205.6506" fill="#A9DCDF" rx="6.6" ry="6.6" style="stroke:#181818;stroke-width:0.6;"/><path d="M162.7125,206.71 L160.2281,206.71 L159.975,207.3287 L160.2281,207.3287 Q160.5938,207.3287 160.7531,207.4693 Q160.9125,207.61 160.9125,207.8443 Q160.9125,208.0693 160.7531,208.21 Q160.5938,208.3506 160.2281,208.3506 L158.85,208.3506 Q158.4844,208.3506 158.3344,208.21 Q158.175,208.0693 158.175,207.835 Q158.175,207.61 158.3438,207.4693 Q158.5031,207.3193 158.8781,207.3287 L160.4813,203.335 L159.8156,203.335 Q159.45,203.335 159.2906,203.1943 Q159.1313,203.0537 159.1313,202.8193 Q159.1313,202.5943 159.2906,202.4537 Q159.45,202.3131 159.8156,202.3131 L162.0187,202.3131 L164.0531,207.3287 Q164.4094,207.3287 164.5219,207.4131 Q164.7563,207.5725 164.7563,207.8443 Q164.7563,208.0693 164.5969,208.21 Q164.4469,208.3506 164.0812,208.3506 L162.7031,208.3506 Q162.3375,208.3506 162.1781,208.21 Q162.0187,208.0693 162.0187,207.835 Q162.0187,207.61 162.1781,207.4693 Q162.3375,207.3287 162.7031,207.3287 L162.9562,207.3287 L162.7125,206.71 Z M162.2813,205.6881 L161.4656,203.6631 L160.6406,205.6881 L162.2813,205.6881 Z " fill="#000000"/><text fill="#000000" font-family="sans-serif" font-size="8.4" font-style="italic" lengthAdjust="spacing" textLength="94.3113" x="169.8" y="209.1677">game.entities.StaticEntity</text><line style="stroke:#181818;stroke-width:0.3;" x1="153" x2="265.3113" y1="215.2506" y2="215.2506"/><polygon fill="none" points="159,221.1759,161.4,223.5759,159,225.9759,156.6,223.5759" style="stroke:#B38D22;stroke-width:0.6;"/><text fill="#000000" font-family="sans-serif" font-size="8.4" lengthAdjust="spacing" textLength="62.5734" x="164.4" y="226.793">Rectangle hitbox</text><line style="stroke:#181818;stroke-width:0.3;" x1="153" x2="265.3113" y1="231.3012" y2="231.3012"/><ellipse cx="159" cy="240.2265" fill="#84BE84" rx="1.8" ry="1.8" style="stroke:#038048;stroke-width:0.6;"/><text fill="#000000" font-family="sans-serif" font-size="8.4" lengthAdjust="spacing" textLength="81.2396" x="164.4" y="242.8436">Rectangle getHitbox()</text></g><!--class game.entities.PacGum--><g class="entity" data-entity="game.entities.PacGum" data-source-line="59" data-uid="ent0013" id="entity_game.entities.PacGum"><rect fill="#F1F1F1" height="51.3012" rx="1.5" ry="1.5" style="stroke:#181818;stroke-width:0.3;" width="107.5693" x="315" y="196.0506"/><ellipse cx="325.5288" cy="205.6506" fill="#ADD1B2" rx="6.6" ry="6.6" style="stroke:#181818;stroke-width:0.6;"/><path d="M327.1881,203.1756 Q327.2819,203.0443 327.3944,202.9787 Q327.5069,202.9131 327.6381,202.9131 Q327.8631,202.9131 328.0038,203.0725 Q328.1444,203.2225 328.1444,203.5881 L328.1444,204.46 Q328.1444,204.8256 328.0038,204.985 Q327.8631,205.1443 327.6381,205.1443 Q327.4319,205.1443 327.31,205.0225 Q327.1881,204.91 327.1225,204.6006 Q327.0944,204.385 326.9819,204.2725 Q326.785,204.0475 326.4194,203.9162 Q326.0538,203.785 325.6788,203.785 Q325.2194,203.785 324.835,203.9818 Q324.46,204.1787 324.16,204.6287 Q323.8694,205.0787 323.8694,205.6975 L323.8694,206.3537 Q323.8694,207.0943 324.4038,207.5912 Q324.9381,208.0787 325.8944,208.0787 Q326.4569,208.0787 326.8506,207.9287 Q327.085,207.835 327.3381,207.5725 Q327.4975,207.4131 327.5819,207.3662 Q327.6756,207.3193 327.7975,207.3193 Q327.9944,207.3193 328.1444,207.4787 Q328.3038,207.6287 328.3038,207.835 Q328.3038,208.0412 328.0975,208.285 Q327.7975,208.6318 327.3194,208.8287 Q326.6725,209.1006 325.8944,209.1006 Q324.985,209.1006 324.2631,208.7256 Q323.6725,208.4256 323.26,207.7881 Q322.8475,207.1412 322.8475,206.3725 L322.8475,205.6787 Q322.8475,204.8818 323.2131,204.1975 Q323.5881,203.5037 324.2444,203.1381 Q324.9006,202.7631 325.6413,202.7631 Q326.0819,202.7631 326.4663,202.8662 Q326.86,202.96 327.1881,203.1756 Z " fill="#000000"/><text fill="#000000" font-family="sans-serif" font-size="8.4" lengthAdjust="spacing" textLength="84.9721" x="334.2685" y="209.1677">game.entities.PacGum</text><line style="stroke:#181818;stroke-width:0.3;" x1="315.6" x2="421.9693" y1="215.2506" y2="215.2506"/><line style="stroke:#181818;stroke-width:0.3;" x1="315.6" x2="421.9693" y1="220.0506" y2="220.0506"/><ellipse cx="321.6" cy="228.9759" fill="#84BE84" rx="1.8" ry="1.8" style="stroke:#038048;stroke-width:0.6;"/><text fill="#000000" font-family="sans-serif" font-size="8.4" lengthAdjust="spacing" textLength="91.9693" x="327" y="231.593">void render(Graphics2D)</text><ellipse cx="321.6" cy="240.2265" fill="#84BE84" rx="1.8" ry="1.8" style="stroke:#038048;stroke-width:0.6;"/><text fill="#000000" font-family="sans-serif" font-size="8.4" lengthAdjust="spacing" textLength="50.884" x="327" y="242.8436">void destroy()</text></g><!--class game.entities.SuperPacGum--><g class="entity" data-entity="game.entities.SuperPacGum" data-source-line="64" data-uid="ent0014" id="entity_game.entities.SuperPacGum"><rect fill="#F1F1F1" height="62.5518" rx="1.5" ry="1.5" style="stroke:#181818;stroke-width:0.3;" width="126.5871" x="305.4" y="268.6506"/><ellipse cx="314.4" cy="278.2506" fill="#ADD1B2" rx="6.6" ry="6.6" style="stroke:#181818;stroke-width:0.6;"/><path d="M316.0594,275.7756 Q316.1531,275.6443 316.2656,275.5787 Q316.3781,275.5131 316.5094,275.5131 Q316.7344,275.5131 316.875,275.6725 Q317.0156,275.8225 317.0156,276.1881 L317.0156,277.06 Q317.0156,277.4256 316.875,277.585 Q316.7344,277.7443 316.5094,277.7443 Q316.3031,277.7443 316.1813,277.6225 Q316.0594,277.51 315.9938,277.2006 Q315.9656,276.985 315.8531,276.8725 Q315.6563,276.6475 315.2906,276.5162 Q314.925,276.385 314.55,276.385 Q314.0906,276.385 313.7063,276.5818 Q313.3313,276.7787 313.0313,277.2287 Q312.7406,277.6787 312.7406,278.2975 L312.7406,278.9537 Q312.7406,279.6943 313.275,280.1912 Q313.8094,280.6787 314.7656,280.6787 Q315.3281,280.6787 315.7219,280.5287 Q315.9563,280.435 316.2094,280.1725 Q316.3688,280.0131 316.4531,279.9662 Q316.5469,279.9193 316.6688,279.9193 Q316.8656,279.9193 317.0156,280.0787 Q317.175,280.2287 317.175,280.435 Q317.175,280.6412 316.9688,280.885 Q316.6688,281.2318 316.1906,281.4287 Q315.5438,281.7006 314.7656,281.7006 Q313.8563,281.7006 313.1344,281.3256 Q312.5438,281.0256 312.1312,280.3881 Q311.7188,279.7412 311.7188,278.9725 L311.7188,278.2787 Q311.7188,277.4818 312.0844,276.7975 Q312.4594,276.1037 313.1156,275.7381 Q313.7719,275.3631 314.5125,275.3631 Q314.9531,275.3631 315.3375,275.4662 Q315.7313,275.56 316.0594,275.7756 Z " fill="#000000"/><text fill="#000000" font-family="sans-serif" font-size="8.4" lengthAdjust="spacing" textLength="107.3871" x="322.8" y="281.7677">game.entities.SuperPacGum</text><line style="stroke:#181818;stroke-width:0.3;" x1="306" x2="431.3871" y1="287.8506" y2="287.8506"/><rect fill="none" height="3.6" style="stroke:#C82930;stroke-width:0.6;" width="3.6" x="310.2" y="294.9759"/><text fill="#000000" font-family="sans-serif" font-size="8.4" lengthAdjust="spacing" textLength="55.0922" x="317.4" y="299.393">int frameCount</text><line style="stroke:#181818;stroke-width:0.3;" x1="306" x2="431.3871" y1="303.9012" y2="303.9012"/><ellipse cx="312" cy="312.8265" fill="#84BE84" rx="1.8" ry="1.8" style="stroke:#038048;stroke-width:0.6;"/><text fill="#000000" font-family="sans-serif" font-size="8.4" lengthAdjust="spacing" textLength="91.9693" x="317.4" y="315.4436">void render(Graphics2D)</text><ellipse cx="312" cy="324.0771" fill="#84BE84" rx="1.8" ry="1.8" style="stroke:#038048;stroke-width:0.6;"/><text fill="#000000" font-family="sans-serif" font-size="8.4" lengthAdjust="spacing" textLength="49.0301" x="317.4" y="326.6941">void update()</text></g><!--class game.entities.Wall--><g class="entity" data-entity="game.entities.Wall" data-source-line="70" data-uid="ent0015" id="entity_game.entities.Wall"><rect fill="#F1F1F1" height="28.8" rx="1.5" ry="1.5" style="stroke:#181818;stroke-width:0.3;" width="87.8273" x="324.9" y="352.0506"/><ellipse cx="333.9" cy="361.6506" fill="#ADD1B2" rx="6.6" ry="6.6" style="stroke:#181818;stroke-width:0.6;"/><path d="M335.5594,359.1756 Q335.6531,359.0443 335.7656,358.9787 Q335.8781,358.9131 336.0094,358.9131 Q336.2344,358.9131 336.375,359.0725 Q336.5156,359.2225 336.5156,359.5881 L336.5156,360.46 Q336.5156,360.8256 336.375,360.985 Q336.2344,361.1443 336.0094,361.1443 Q335.8031,361.1443 335.6813,361.0225 Q335.5594,360.91 335.4938,360.6006 Q335.4656,360.385 335.3531,360.2725 Q335.1563,360.0475 334.7906,359.9162 Q334.425,359.785 334.05,359.785 Q333.5906,359.785 333.2063,359.9818 Q332.8313,360.1787 332.5313,360.6287 Q332.2406,361.0787 332.2406,361.6975 L332.2406,362.3537 Q332.2406,363.0943 332.775,363.5912 Q333.3094,364.0787 334.2656,364.0787 Q334.8281,364.0787 335.2219,363.9287 Q335.4563,363.835 335.7094,363.5725 Q335.8688,363.4131 335.9531,363.3662 Q336.0469,363.3193 336.1688,363.3193 Q336.3656,363.3193 336.5156,363.4787 Q336.675,363.6287 336.675,363.835 Q336.675,364.0412 336.4688,364.285 Q336.1688,364.6318 335.6906,364.8287 Q335.0438,365.1006 334.2656,365.1006 Q333.3563,365.1006 332.6344,364.7256 Q332.0438,364.4256 331.6312,363.7881 Q331.2188,363.1412 331.2188,362.3725 L331.2188,361.6787 Q331.2188,360.8818 331.5844,360.1975 Q331.9594,359.5037 332.6156,359.1381 Q333.2719,358.7631 334.0125,358.7631 Q334.4531,358.7631 334.8375,358.8662 Q335.2313,358.96 335.5594,359.1756 Z " fill="#000000"/><text fill="#000000" font-family="sans-serif" font-size="8.4" lengthAdjust="spacing" textLength="68.6273" x="342.3" y="365.1677">game.entities.Wall</text><line style="stroke:#181818;stroke-width:0.3;" x1="325.5" x2="412.1273" y1="371.2506" y2="371.2506"/><line style="stroke:#181818;stroke-width:0.3;" x1="325.5" x2="412.1273" y1="376.0506" y2="376.0506"/></g><!--class game.entities.items.Shield--><g class="entity" data-entity="game.entities.items.Shield" data-source-line="72" data-uid="ent0016" id="entity_game.entities.items.Shield"><rect fill="#F1F1F1" height="28.8" rx="1.5" ry="1.5" style="stroke:#181818;stroke-width:0.3;" width="117.2479" x="709.8" y="248.2506"/><ellipse cx="718.8" cy="257.8506" fill="#ADD1B2" rx="6.6" ry="6.6" style="stroke:#181818;stroke-width:0.6;"/><path d="M720.4594,255.3756 Q720.5531,255.2443 720.6656,255.1787 Q720.7781,255.1131 720.9094,255.1131 Q721.1344,255.1131 721.275,255.2725 Q721.4156,255.4225 721.4156,255.7881 L721.4156,256.66 Q721.4156,257.0256 721.275,257.185 Q721.1344,257.3443 720.9094,257.3443 Q720.7031,257.3443 720.5813,257.2225 Q720.4594,257.11 720.3938,256.8006 Q720.3656,256.585 720.2531,256.4725 Q720.0563,256.2475 719.6906,256.1162 Q719.325,255.985 718.95,255.985 Q718.4906,255.985 718.1062,256.1818 Q717.7312,256.3787 717.4313,256.8287 Q717.1406,257.2787 717.1406,257.8975 L717.1406,258.5537 Q717.1406,259.2943 717.675,259.7912 Q718.2094,260.2787 719.1656,260.2787 Q719.7281,260.2787 720.1219,260.1287 Q720.3562,260.035 720.6094,259.7725 Q720.7688,259.6131 720.8531,259.5662 Q720.9469,259.5193 721.0688,259.5193 Q721.2656,259.5193 721.4156,259.6787 Q721.575,259.8287 721.575,260.035 Q721.575,260.2412 721.3688,260.485 Q721.0688,260.8318 720.5906,261.0287 Q719.9438,261.3006 719.1656,261.3006 Q718.2563,261.3006 717.5344,260.9256 Q716.9438,260.6256 716.5313,259.9881 Q716.1188,259.3412 716.1188,258.5725 L716.1188,257.8787 Q716.1188,257.0818 716.4844,256.3975 Q716.8594,255.7037 717.5156,255.3381 Q718.1719,254.9631 718.9125,254.9631 Q719.3531,254.9631 719.7375,255.0662 Q720.1313,255.16 720.4594,255.3756 Z " fill="#000000"/><text fill="#000000" font-family="sans-serif" font-size="8.4" lengthAdjust="spacing" textLength="98.0479" x="727.2" y="261.3677">game.entities.items.Shield</text><line style="stroke:#181818;stroke-width:0.3;" x1="710.4" x2="826.4479" y1="267.4506" y2="267.4506"/><line style="stroke:#181818;stroke-width:0.3;" x1="710.4" x2="826.4479" y1="272.2506" y2="272.2506"/></g><!--class game.pacmanEffect.SpeedUpEffect--><g class="entity" data-entity="game.pacmanEffect.SpeedUpEffect" data-source-line="75" data-uid="ent0017" id="entity_game.pacmanEffect.SpeedUpEffect"><rect fill="#F1F1F1" height="62.5518" rx="1.5" ry="1.5" style="stroke:#181818;stroke-width:0.3;" width="152.7428" x="888.3" y="220.6506"/><ellipse cx="897.3" cy="230.2506" fill="#ADD1B2" rx="6.6" ry="6.6" style="stroke:#181818;stroke-width:0.6;"/><path d="M898.9594,227.7756 Q899.0531,227.6443 899.1656,227.5787 Q899.2781,227.5131 899.4094,227.5131 Q899.6344,227.5131 899.775,227.6725 Q899.9156,227.8225 899.9156,228.1881 L899.9156,229.06 Q899.9156,229.4256 899.775,229.585 Q899.6344,229.7443 899.4094,229.7443 Q899.2031,229.7443 899.0813,229.6225 Q898.9594,229.51 898.8938,229.2006 Q898.8656,228.985 898.7531,228.8725 Q898.5563,228.6475 898.1906,228.5162 Q897.825,228.385 897.45,228.385 Q896.9906,228.385 896.6062,228.5818 Q896.2312,228.7787 895.9313,229.2287 Q895.6406,229.6787 895.6406,230.2975 L895.6406,230.9537 Q895.6406,231.6943 896.175,232.1912 Q896.7094,232.6787 897.6656,232.6787 Q898.2281,232.6787 898.6219,232.5287 Q898.8562,232.435 899.1094,232.1725 Q899.2688,232.0131 899.3531,231.9662 Q899.4469,231.9193 899.5688,231.9193 Q899.7656,231.9193 899.9156,232.0787 Q900.075,232.2287 900.075,232.435 Q900.075,232.6412 899.8688,232.885 Q899.5688,233.2318 899.0906,233.4287 Q898.4438,233.7006 897.6656,233.7006 Q896.7563,233.7006 896.0344,233.3256 Q895.4438,233.0256 895.0313,232.3881 Q894.6188,231.7412 894.6188,230.9725 L894.6188,230.2787 Q894.6188,229.4818 894.9844,228.7975 Q895.3594,228.1037 896.0156,227.7381 Q896.6719,227.3631 897.4125,227.3631 Q897.8531,227.3631 898.2375,227.4662 Q898.6313,227.56 898.9594,227.7756 Z " fill="#000000"/><text fill="#000000" font-family="sans-serif" font-size="8.4" lengthAdjust="spacing" textLength="133.5428" x="905.7" y="233.7677">game.pacmanEffect.SpeedUpEffect</text><line style="stroke:#181818;stroke-width:0.3;" x1="888.9" x2="1040.4428" y1="239.8506" y2="239.8506"/><rect fill="none" height="3.6" style="stroke:#C82930;stroke-width:0.6;" width="3.6" x="893.1" y="246.9759"/><text fill="#000000" font-family="sans-serif" font-size="8.4" lengthAdjust="spacing" textLength="55.5721" x="900.3" y="251.393">int speedBoost</text><line style="stroke:#181818;stroke-width:0.3;" x1="888.9" x2="1040.4428" y1="255.9012" y2="255.9012"/><ellipse cx="894.9" cy="264.8265" fill="#84BE84" rx="1.8" ry="1.8" style="stroke:#038048;stroke-width:0.6;"/><text fill="#000000" font-family="sans-serif" font-size="8.4" lengthAdjust="spacing" textLength="91.5059" x="900.3" y="267.4436">void apply(MovingEntity)</text><ellipse cx="894.9" cy="276.0771" fill="#84BE84" rx="1.8" ry="1.8" style="stroke:#038048;stroke-width:0.6;"/><text fill="#000000" font-family="sans-serif" font-size="8.4" lengthAdjust="spacing" textLength="99.4342" x="900.3" y="278.6941">void remove(MovingEntity)</text></g><!--class game.pacmanEffect.EffectCommand--><g class="entity" data-entity="game.pacmanEffect.EffectCommand" data-source-line="81" data-uid="ent0018" id="entity_game.pacmanEffect.EffectCommand"><rect fill="#F1F1F1" height="152.5564" rx="1.5" ry="1.5" style="stroke:#181818;stroke-width:0.3;" width="156.4629" x="690" y="298.0506"/><ellipse cx="699" cy="307.6506" fill="#A9DCDF" rx="6.6" ry="6.6" style="stroke:#181818;stroke-width:0.6;"/><path d="M700.3125,308.71 L697.8281,308.71 L697.575,309.3287 L697.8281,309.3287 Q698.1938,309.3287 698.3531,309.4693 Q698.5125,309.61 698.5125,309.8443 Q698.5125,310.0693 698.3531,310.21 Q698.1938,310.3506 697.8281,310.3506 L696.45,310.3506 Q696.0844,310.3506 695.9344,310.21 Q695.775,310.0693 695.775,309.835 Q695.775,309.61 695.9438,309.4693 Q696.1031,309.3193 696.4781,309.3287 L698.0813,305.335 L697.4156,305.335 Q697.05,305.335 696.8906,305.1943 Q696.7312,305.0537 696.7312,304.8193 Q696.7312,304.5943 696.8906,304.4537 Q697.05,304.3131 697.4156,304.3131 L699.6188,304.3131 L701.6531,309.3287 Q702.0094,309.3287 702.1219,309.4131 Q702.3562,309.5725 702.3562,309.8443 Q702.3562,310.0693 702.1969,310.21 Q702.0469,310.3506 701.6813,310.3506 L700.3031,310.3506 Q699.9375,310.3506 699.7781,310.21 Q699.6188,310.0693 699.6188,309.835 Q699.6188,309.61 699.7781,309.4693 Q699.9375,309.3287 700.3031,309.3287 L700.5563,309.3287 L700.3125,308.71 Z M699.8813,307.6881 L699.0656,305.6631 L698.2406,307.6881 L699.8813,307.6881 Z " fill="#000000"/><text fill="#000000" font-family="sans-serif" font-size="8.4" font-style="italic" lengthAdjust="spacing" textLength="137.2629" x="707.4" y="311.1677">game.pacmanEffect.EffectCommand</text><line style="stroke:#181818;stroke-width:0.3;" x1="690.6" x2="845.8629" y1="317.2506" y2="317.2506"/><polygon fill="none" points="696.6,323.1759,699,325.5759,696.6,327.9759,694.2,325.5759" style="stroke:#B38D22;stroke-width:0.6;"/><text fill="#000000" font-family="sans-serif" font-size="8.4" lengthAdjust="spacing" textLength="101.325" x="702" y="328.793">BufferedImage effectImage</text><polygon fill="none" points="696.6,334.4265,699,336.8265,696.6,339.2265,694.2,336.8265" style="stroke:#B38D22;stroke-width:0.6;"/><text fill="#000000" font-family="sans-serif" font-size="8.4" lengthAdjust="spacing" textLength="36.8813" x="702" y="340.0436">long timer</text><polygon fill="none" points="696.6,345.6771,699,348.0771,696.6,350.4771,694.2,348.0771" style="stroke:#B38D22;stroke-width:0.6;"/><text fill="#000000" font-family="sans-serif" font-size="8.4" lengthAdjust="spacing" textLength="48.5707" x="702" y="351.2941">long duration</text><line style="stroke:#181818;stroke-width:0.3;" x1="690.6" x2="845.8629" y1="355.8023" y2="355.8023"/><ellipse cx="696.6" cy="364.7276" fill="#84BE84" rx="1.8" ry="1.8" style="stroke:#038048;stroke-width:0.6;"/><text fill="#000000" font-family="sans-serif" font-size="8.4" font-style="italic" lengthAdjust="spacing" textLength="91.5059" x="702" y="367.3447">void apply(MovingEntity)</text><ellipse cx="696.6" cy="375.9782" fill="#84BE84" rx="1.8" ry="1.8" style="stroke:#038048;stroke-width:0.6;"/><text fill="#000000" font-family="sans-serif" font-size="8.4" font-style="italic" lengthAdjust="spacing" textLength="99.4342" x="702" y="378.5953">void remove(MovingEntity)</text><ellipse cx="696.6" cy="387.2288" fill="#84BE84" rx="1.8" ry="1.8" style="stroke:#038048;stroke-width:0.6;"/><text fill="#000000" font-family="sans-serif" font-size="8.4" lengthAdjust="spacing" textLength="63.4758" x="702" y="389.8459">void resetTimer()</text><ellipse cx="696.6" cy="398.4794" fill="#84BE84" rx="1.8" ry="1.8" style="stroke:#038048;stroke-width:0.6;"/><text fill="#000000" font-family="sans-serif" font-size="8.4" lengthAdjust="spacing" textLength="49.0301" x="702" y="401.0965">void update()</text><ellipse cx="696.6" cy="409.73" fill="#84BE84" rx="1.8" ry="1.8" style="stroke:#038048;stroke-width:0.6;"/><text fill="#000000" font-family="sans-serif" font-size="8.4" lengthAdjust="spacing" textLength="56.9502" x="702" y="412.3471">long getTimer()</text><ellipse cx="696.6" cy="420.9806" fill="#84BE84" rx="1.8" ry="1.8" style="stroke:#038048;stroke-width:0.6;"/><text fill="#000000" font-family="sans-serif" font-size="8.4" lengthAdjust="spacing" textLength="72.3721" x="702" y="423.5977">boolean isExpired()</text><ellipse cx="696.6" cy="432.2312" fill="#84BE84" rx="1.8" ry="1.8" style="stroke:#038048;stroke-width:0.6;"/><text fill="#000000" font-family="sans-serif" font-size="8.4" lengthAdjust="spacing" textLength="86.8424" x="702" y="434.8482">float getDurationRatio()</text><ellipse cx="696.6" cy="443.4817" fill="#84BE84" rx="1.8" ry="1.8" style="stroke:#038048;stroke-width:0.6;"/><text fill="#000000" font-family="sans-serif" font-size="8.4" lengthAdjust="spacing" textLength="119.5277" x="702" y="446.0988">BufferedImage getEffectImage()</text></g><!--class game.pacmanEffect.SpeedDownEffect--><g class="entity" data-entity="game.pacmanEffect.SpeedDownEffect" data-source-line="95" data-uid="ent0019" id="entity_game.pacmanEffect.SpeedDownEffect"><rect fill="#F1F1F1" height="62.5518" rx="1.5" ry="1.5" style="stroke:#181818;stroke-width:0.3;" width="163.4807" x="883.2" y="304.0506"/><ellipse cx="892.2" cy="313.6506" fill="#ADD1B2" rx="6.6" ry="6.6" style="stroke:#181818;stroke-width:0.6;"/><path d="M893.8594,311.1756 Q893.9531,311.0443 894.0656,310.9787 Q894.1781,310.9131 894.3094,310.9131 Q894.5344,310.9131 894.675,311.0725 Q894.8156,311.2225 894.8156,311.5881 L894.8156,312.46 Q894.8156,312.8256 894.675,312.985 Q894.5344,313.1443 894.3094,313.1443 Q894.1031,313.1443 893.9812,313.0225 Q893.8594,312.91 893.7937,312.6006 Q893.7656,312.385 893.6531,312.2725 Q893.4563,312.0475 893.0906,311.9162 Q892.725,311.785 892.35,311.785 Q891.8906,311.785 891.5063,311.9818 Q891.1313,312.1787 890.8313,312.6287 Q890.5406,313.0787 890.5406,313.6975 L890.5406,314.3537 Q890.5406,315.0943 891.075,315.5912 Q891.6094,316.0787 892.5656,316.0787 Q893.1281,316.0787 893.5219,315.9287 Q893.7563,315.835 894.0094,315.5725 Q894.1687,315.4131 894.2531,315.3662 Q894.3469,315.3193 894.4688,315.3193 Q894.6656,315.3193 894.8156,315.4787 Q894.975,315.6287 894.975,315.835 Q894.975,316.0412 894.7688,316.285 Q894.4688,316.6318 893.9906,316.8287 Q893.3438,317.1006 892.5656,317.1006 Q891.6563,317.1006 890.9344,316.7256 Q890.3438,316.4256 889.9313,315.7881 Q889.5188,315.1412 889.5188,314.3725 L889.5188,313.6787 Q889.5188,312.8818 889.8844,312.1975 Q890.2594,311.5037 890.9156,311.1381 Q891.5719,310.7631 892.3125,310.7631 Q892.7531,310.7631 893.1375,310.8662 Q893.5313,310.96 893.8594,311.1756 Z " fill="#000000"/><text fill="#000000" font-family="sans-serif" font-size="8.4" lengthAdjust="spacing" textLength="144.2807" x="900.6" y="317.1677">game.pacmanEffect.SpeedDownEffect</text><line style="stroke:#181818;stroke-width:0.3;" x1="883.8" x2="1046.0807" y1="323.2506" y2="323.2506"/><rect fill="none" height="3.6" style="stroke:#C82930;stroke-width:0.6;" width="3.6" x="888" y="330.3759"/><text fill="#000000" font-family="sans-serif" font-size="8.4" lengthAdjust="spacing" textLength="55.5721" x="895.2" y="334.793">int speedBoost</text><line style="stroke:#181818;stroke-width:0.3;" x1="883.8" x2="1046.0807" y1="339.3012" y2="339.3012"/><ellipse cx="889.8" cy="348.2265" fill="#84BE84" rx="1.8" ry="1.8" style="stroke:#038048;stroke-width:0.6;"/><text fill="#000000" font-family="sans-serif" font-size="8.4" lengthAdjust="spacing" textLength="91.5059" x="895.2" y="350.8436">void apply(MovingEntity)</text><ellipse cx="889.8" cy="359.4771" fill="#84BE84" rx="1.8" ry="1.8" style="stroke:#038048;stroke-width:0.6;"/><text fill="#000000" font-family="sans-serif" font-size="8.4" lengthAdjust="spacing" textLength="99.4342" x="895.2" y="362.0941">void remove(MovingEntity)</text></g><!--class game.pacmanEffect.ConfuseEffect--><g class="entity" data-entity="game.pacmanEffect.ConfuseEffect" data-source-line="101" data-uid="ent0020" id="entity_game.pacmanEffect.ConfuseEffect"><rect fill="#F1F1F1" height="51.3012" rx="1.5" ry="1.5" style="stroke:#181818;stroke-width:0.3;" width="149.0021" x="890.4" y="387.4506"/><ellipse cx="899.4" cy="397.0506" fill="#ADD1B2" rx="6.6" ry="6.6" style="stroke:#181818;stroke-width:0.6;"/><path d="M901.0594,394.5756 Q901.1531,394.4443 901.2656,394.3787 Q901.3781,394.3131 901.5094,394.3131 Q901.7344,394.3131 901.875,394.4725 Q902.0156,394.6225 902.0156,394.9881 L902.0156,395.86 Q902.0156,396.2256 901.875,396.385 Q901.7344,396.5443 901.5094,396.5443 Q901.3031,396.5443 901.1813,396.4225 Q901.0594,396.31 900.9938,396.0006 Q900.9656,395.785 900.8531,395.6725 Q900.6563,395.4475 900.2906,395.3162 Q899.925,395.185 899.55,395.185 Q899.0906,395.185 898.7063,395.3818 Q898.3313,395.5787 898.0313,396.0287 Q897.7406,396.4787 897.7406,397.0975 L897.7406,397.7537 Q897.7406,398.4943 898.275,398.9912 Q898.8094,399.4787 899.7656,399.4787 Q900.3281,399.4787 900.7219,399.3287 Q900.9563,399.235 901.2094,398.9725 Q901.3688,398.8131 901.4531,398.7662 Q901.5469,398.7193 901.6687,398.7193 Q901.8656,398.7193 902.0156,398.8787 Q902.175,399.0287 902.175,399.235 Q902.175,399.4412 901.9688,399.685 Q901.6687,400.0318 901.1906,400.2287 Q900.5437,400.5006 899.7656,400.5006 Q898.8562,400.5006 898.1344,400.1256 Q897.5437,399.8256 897.1313,399.1881 Q896.7188,398.5412 896.7188,397.7725 L896.7188,397.0787 Q896.7188,396.2818 897.0844,395.5975 Q897.4594,394.9037 898.1156,394.5381 Q898.7719,394.1631 899.5125,394.1631 Q899.9531,394.1631 900.3375,394.2662 Q900.7312,394.36 901.0594,394.5756 Z " fill="#000000"/><text fill="#000000" font-family="sans-serif" font-size="8.4" lengthAdjust="spacing" textLength="129.8021" x="907.8" y="400.5677">game.pacmanEffect.ConfuseEffect</text><line style="stroke:#181818;stroke-width:0.3;" x1="891" x2="1038.8021" y1="406.6506" y2="406.6506"/><line style="stroke:#181818;stroke-width:0.3;" x1="891" x2="1038.8021" y1="411.4506" y2="411.4506"/><ellipse cx="897" cy="420.3759" fill="#84BE84" rx="1.8" ry="1.8" style="stroke:#038048;stroke-width:0.6;"/><text fill="#000000" font-family="sans-serif" font-size="8.4" lengthAdjust="spacing" textLength="91.5059" x="902.4" y="422.993">void apply(MovingEntity)</text><ellipse cx="897" cy="431.6265" fill="#84BE84" rx="1.8" ry="1.8" style="stroke:#038048;stroke-width:0.6;"/><text fill="#000000" font-family="sans-serif" font-size="8.4" lengthAdjust="spacing" textLength="99.4342" x="902.4" y="434.2436">void remove(MovingEntity)</text></g><!--class game.pacmanEffect.InvulnerableEffect--><g class="entity" data-entity="game.pacmanEffect.InvulnerableEffect" data-source-line="106" data-uid="ent0021" id="entity_game.pacmanEffect.InvulnerableEffect"><rect fill="#F1F1F1" height="51.3012" rx="1.5" ry="1.5" style="stroke:#181818;stroke-width:0.3;" width="163.4807" x="883.2" y="460.0506"/><ellipse cx="892.2" cy="469.6506" fill="#ADD1B2" rx="6.6" ry="6.6" style="stroke:#181818;stroke-width:0.6;"/><path d="M893.8594,467.1756 Q893.9531,467.0443 894.0656,466.9787 Q894.1781,466.9131 894.3094,466.9131 Q894.5344,466.9131 894.675,467.0725 Q894.8156,467.2225 894.8156,467.5881 L894.8156,468.46 Q894.8156,468.8256 894.675,468.985 Q894.5344,469.1443 894.3094,469.1443 Q894.1031,469.1443 893.9812,469.0225 Q893.8594,468.91 893.7937,468.6006 Q893.7656,468.385 893.6531,468.2725 Q893.4563,468.0475 893.0906,467.9162 Q892.725,467.785 892.35,467.785 Q891.8906,467.785 891.5063,467.9818 Q891.1313,468.1787 890.8313,468.6287 Q890.5406,469.0787 890.5406,469.6975 L890.5406,470.3537 Q890.5406,471.0943 891.075,471.5912 Q891.6094,472.0787 892.5656,472.0787 Q893.1281,472.0787 893.5219,471.9287 Q893.7563,471.835 894.0094,471.5725 Q894.1687,471.4131 894.2531,471.3662 Q894.3469,471.3193 894.4688,471.3193 Q894.6656,471.3193 894.8156,471.4787 Q894.975,471.6287 894.975,471.835 Q894.975,472.0412 894.7688,472.285 Q894.4688,472.6318 893.9906,472.8287 Q893.3438,473.1006 892.5656,473.1006 Q891.6563,473.1006 890.9344,472.7256 Q890.3438,472.4256 889.9313,471.7881 Q889.5188,471.1412 889.5188,470.3725 L889.5188,469.6787 Q889.5188,468.8818 889.8844,468.1975 Q890.2594,467.5037 890.9156,467.1381 Q891.5719,466.7631 892.3125,466.7631 Q892.7531,466.7631 893.1375,466.8662 Q893.5313,466.96 893.8594,467.1756 Z " fill="#000000"/><text fill="#000000" font-family="sans-serif" font-size="8.4" lengthAdjust="spacing" textLength="144.2807" x="900.6" y="473.1677">game.pacmanEffect.InvulnerableEffect</text><line style="stroke:#181818;stroke-width:0.3;" x1="883.8" x2="1046.0807" y1="479.2506" y2="479.2506"/><line style="stroke:#181818;stroke-width:0.3;" x1="883.8" x2="1046.0807" y1="484.0506" y2="484.0506"/><ellipse cx="889.8" cy="492.9759" fill="#84BE84" rx="1.8" ry="1.8" style="stroke:#038048;stroke-width:0.6;"/><text fill="#000000" font-family="sans-serif" font-size="8.4" lengthAdjust="spacing" textLength="91.5059" x="895.2" y="495.593">void apply(MovingEntity)</text><ellipse cx="889.8" cy="504.2265" fill="#84BE84" rx="1.8" ry="1.8" style="stroke:#038048;stroke-width:0.6;"/><text fill="#000000" font-family="sans-serif" font-size="8.4" lengthAdjust="spacing" textLength="99.4342" x="895.2" y="506.8436">void remove(MovingEntity)</text></g><!--class game.entities.Pacman--><g class="entity" data-entity="game.entities.Pacman" data-source-line="157" data-uid="ent0030" id="entity_game.entities.Pacman"><rect fill="#F1F1F1" height="28.8" rx="1.5" ry="1.5" style="stroke:#181818;stroke-width:0.3;" width="102.31" x="317.4" y="28.0506"/><ellipse cx="326.4" cy="37.6506" fill="#ADD1B2" rx="6.6" ry="6.6" style="stroke:#181818;stroke-width:0.6;"/><path d="M328.0594,35.1756 Q328.1531,35.0443 328.2656,34.9787 Q328.3781,34.9131 328.5094,34.9131 Q328.7344,34.9131 328.875,35.0725 Q329.0156,35.2225 329.0156,35.5881 L329.0156,36.46 Q329.0156,36.8256 328.875,36.985 Q328.7344,37.1443 328.5094,37.1443 Q328.3031,37.1443 328.1813,37.0225 Q328.0594,36.91 327.9938,36.6006 Q327.9656,36.385 327.8531,36.2725 Q327.6563,36.0475 327.2906,35.9162 Q326.925,35.785 326.55,35.785 Q326.0906,35.785 325.7063,35.9818 Q325.3313,36.1787 325.0313,36.6287 Q324.7406,37.0787 324.7406,37.6975 L324.7406,38.3537 Q324.7406,39.0943 325.275,39.5912 Q325.8094,40.0787 326.7656,40.0787 Q327.3281,40.0787 327.7219,39.9287 Q327.9563,39.835 328.2094,39.5725 Q328.3688,39.4131 328.4531,39.3662 Q328.5469,39.3193 328.6688,39.3193 Q328.8656,39.3193 329.0156,39.4787 Q329.175,39.6287 329.175,39.835 Q329.175,40.0412 328.9688,40.285 Q328.6688,40.6318 328.1906,40.8287 Q327.5438,41.1006 326.7656,41.1006 Q325.8563,41.1006 325.1344,40.7256 Q324.5438,40.4256 324.1312,39.7881 Q323.7188,39.1412 323.7188,38.3725 L323.7188,37.6787 Q323.7188,36.8818 324.0844,36.1975 Q324.4594,35.5037 325.1156,35.1381 Q325.7719,34.7631 326.5125,34.7631 Q326.9531,34.7631 327.3375,34.8662 Q327.7313,34.96 328.0594,35.1756 Z " fill="#000000"/><text fill="#000000" font-family="sans-serif" font-size="8.4" lengthAdjust="spacing" textLength="83.11" x="334.8" y="41.1677">game.entities.Pacman</text><line style="stroke:#181818;stroke-width:0.3;" x1="318" x2="419.11" y1="47.2506" y2="47.2506"/><line style="stroke:#181818;stroke-width:0.3;" x1="318" x2="419.11" y1="52.0506" y2="52.0506"/></g><!--class game.entities.GhostHouse--><g class="entity" data-entity="game.entities.GhostHouse" data-source-line="165" data-uid="ent0037" id="entity_game.entities.GhostHouse"><rect fill="#F1F1F1" height="28.8" rx="1.5" ry="1.5" style="stroke:#181818;stroke-width:0.3;" width="118.1871" x="487.2" y="352.0506"/><ellipse cx="496.2" cy="361.6506" fill="#ADD1B2" rx="6.6" ry="6.6" style="stroke:#181818;stroke-width:0.6;"/><path d="M497.8594,359.1756 Q497.9531,359.0443 498.0656,358.9787 Q498.1781,358.9131 498.3094,358.9131 Q498.5344,358.9131 498.675,359.0725 Q498.8156,359.2225 498.8156,359.5881 L498.8156,360.46 Q498.8156,360.8256 498.675,360.985 Q498.5344,361.1443 498.3094,361.1443 Q498.1031,361.1443 497.9813,361.0225 Q497.8594,360.91 497.7938,360.6006 Q497.7656,360.385 497.6531,360.2725 Q497.4562,360.0475 497.0906,359.9162 Q496.725,359.785 496.35,359.785 Q495.8906,359.785 495.5062,359.9818 Q495.1312,360.1787 494.8312,360.6287 Q494.5406,361.0787 494.5406,361.6975 L494.5406,362.3537 Q494.5406,363.0943 495.075,363.5912 Q495.6094,364.0787 496.5656,364.0787 Q497.1281,364.0787 497.5219,363.9287 Q497.7562,363.835 498.0094,363.5725 Q498.1688,363.4131 498.2531,363.3662 Q498.3469,363.3193 498.4688,363.3193 Q498.6656,363.3193 498.8156,363.4787 Q498.975,363.6287 498.975,363.835 Q498.975,364.0412 498.7687,364.285 Q498.4688,364.6318 497.9906,364.8287 Q497.3438,365.1006 496.5656,365.1006 Q495.6563,365.1006 494.9344,364.7256 Q494.3438,364.4256 493.9313,363.7881 Q493.5187,363.1412 493.5187,362.3725 L493.5187,361.6787 Q493.5187,360.8818 493.8844,360.1975 Q494.2594,359.5037 494.9156,359.1381 Q495.5719,358.7631 496.3125,358.7631 Q496.7531,358.7631 497.1375,358.8662 Q497.5313,358.96 497.8594,359.1756 Z " fill="#000000"/><text fill="#000000" font-family="sans-serif" font-size="8.4" lengthAdjust="spacing" textLength="98.9871" x="504.6" y="365.1677">game.entities.GhostHouse</text><line style="stroke:#181818;stroke-width:0.3;" x1="487.8" x2="604.7871" y1="371.2506" y2="371.2506"/><line style="stroke:#181818;stroke-width:0.3;" x1="487.8" x2="604.7871" y1="376.0506" y2="376.0506"/></g><!--reverse link game.entities.items.Item to game.entities.items.Watermelon--><g class="link" data-entity-1="game.entities.items.Item" data-entity-2="game.entities.items.Watermelon" data-source-line="145" data-uid="lnk22" id="link_game.entities.items.Item_game.entities.items.Watermelon"><path codeLine="145" d="M435.2403,91.5198 C449.1183,84.6258 454.398,82.4346 468.6,76.6506 C477.516,73.0206 487.176,69.5706 496.548,66.4686" fill="none" id="game.entities.items.Item-backto-game.entities.items.Watermelon" style="stroke:#181818;stroke-width:0.6;"/><polygon fill="none" points="425.568,96.3246,436.8419,94.7439,433.6387,88.2957,425.568,96.3246" style="stroke:#181818;stroke-width:0.6;"/></g><!--reverse link game.entities.Entity to game.entities.MovingEntity--><g class="link" data-entity-1="game.entities.Entity" data-entity-2="game.entities.MovingEntity" data-source-line="147" data-uid="lnk23" id="link_game.entities.Entity_game.entities.MovingEntity"><path codeLine="147" d="M122.2401,154.0248 C146.7621,139.1988 165.366,127.9386 184.638,116.2806" fill="none" id="game.entities.Entity-backto-game.entities.MovingEntity" style="stroke:#181818;stroke-width:0.6;"/><polygon fill="none" points="112.998,159.6126,124.1027,157.1055,120.3775,150.9441,112.998,159.6126" style="stroke:#181818;stroke-width:0.6;"/></g><!--reverse link game.entities.items.EffectItem to game.entities.items.SpeedUp--><g class="link" data-entity-1="game.entities.items.EffectItem" data-entity-2="game.entities.items.SpeedUp" data-source-line="148" data-uid="lnk24" id="link_game.entities.items.EffectItem_game.entities.items.SpeedUp"><path codeLine="148" d="M613.5347,182.2743 C620.3807,178.9563 617.52,180.2406 624,176.8506 C654.072,161.1246 659.016,152.2986 690,138.4506 C698.802,134.5146 708.414,130.8906 717.78,127.6926" fill="none" id="game.entities.items.EffectItem-backto-game.entities.items.SpeedUp" style="stroke:#181818;stroke-width:0.6;"/><polygon fill="none" points="603.816,186.9846,615.1048,185.5139,611.9646,179.0347,603.816,186.9846" style="stroke:#181818;stroke-width:0.6;"/></g><!--reverse link game.entities.items.EffectItem to game.entities.items.Demon--><g class="link" data-entity-1="game.entities.items.EffectItem" data-entity-2="game.entities.items.Demon" data-source-line="149" data-uid="lnk25" id="link_game.entities.items.EffectItem_game.entities.items.Demon"><path codeLine="149" d="M634.6616,193.0575 C662.0216,186.8895 681.84,182.4186 707.568,176.6106" fill="none" id="game.entities.items.EffectItem-backto-game.entities.items.Demon" style="stroke:#181818;stroke-width:0.6;"/><polygon fill="none" points="624.126,195.4326,635.4533,196.5693,633.8699,189.5456,624.126,195.4326" style="stroke:#181818;stroke-width:0.6;"/></g><!--reverse link game.entities.StaticEntity to game.entities.items.Item--><g class="link" data-entity-1="game.entities.StaticEntity" data-entity-2="game.entities.items.Item" data-source-line="150" data-uid="lnk26" id="link_game.entities.StaticEntity_game.entities.items.Item"><path codeLine="150" d="M261.816,190.4613 C280.05,179.4813 292.314,172.0986 311.802,160.3566" fill="none" id="game.entities.StaticEntity-backto-game.entities.items.Item" style="stroke:#181818;stroke-width:0.6;"/><polygon fill="none" points="252.564,196.0326,263.6732,193.5453,259.9589,187.3772,252.564,196.0326" style="stroke:#181818;stroke-width:0.6;"/></g><!--reverse link game.entities.items.Item to game.entities.items.Apple--><g class="link" data-entity-1="game.entities.items.Item" data-entity-2="game.entities.items.Apple" data-source-line="151" data-uid="lnk27" id="link_game.entities.items.Item_game.entities.items.Apple"><path codeLine="151" d="M436.2947,117.1068 C456.4127,114.3048 468.39,112.6326 488.574,109.8186" fill="none" id="game.entities.items.Item-backto-game.entities.items.Apple" style="stroke:#181818;stroke-width:0.6;"/><polygon fill="none" points="425.598,118.5966,436.7914,120.6723,435.7981,113.5412,425.598,118.5966" style="stroke:#181818;stroke-width:0.6;"/></g><!--reverse link game.entities.items.EffectItem to game.entities.items.Banana--><g class="link" data-entity-1="game.entities.items.EffectItem" data-entity-2="game.entities.items.Banana" data-source-line="152" data-uid="lnk28" id="link_game.entities.items.EffectItem_game.entities.items.Banana"><path codeLine="152" d="M634.926,212.8506 C661.974,212.8506 681.15,212.8506 706.686,212.8506" fill="none" id="game.entities.items.EffectItem-backto-game.entities.items.Banana" style="stroke:#181818;stroke-width:0.6;"/><polygon fill="none" points="624.126,212.8506,634.926,216.4506,634.926,209.2506,624.126,212.8506" style="stroke:#181818;stroke-width:0.6;"/></g><!--reverse link game.entities.items.Item to game.entities.items.Cherry--><g class="link" data-entity-1="game.entities.items.Item" data-entity-2="game.entities.items.Cherry" data-source-line="155" data-uid="lnk29" id="link_game.entities.items.Item_game.entities.items.Cherry"><path codeLine="155" d="M436.2892,136.0198 C455.7532,138.8038 466.914,140.3946 486.594,143.2086" fill="none" id="game.entities.items.Item-backto-game.entities.items.Cherry" style="stroke:#181818;stroke-width:0.6;"/><polygon fill="none" points="425.598,134.4906,435.7795,139.5835,436.7989,132.4561,425.598,134.4906" style="stroke:#181818;stroke-width:0.6;"/></g><!--reverse link game.entities.MovingEntity to game.entities.Pacman--><g class="link" data-entity-1="game.entities.MovingEntity" data-entity-2="game.entities.Pacman" data-source-line="157" data-uid="lnk31" id="link_game.entities.MovingEntity_game.entities.Pacman"><path codeLine="157" d="M258.3567,83.6053 C283.0827,74.3353 304.95,66.1326 329.658,56.8686" fill="none" id="game.entities.MovingEntity-backto-game.entities.Pacman" style="stroke:#181818;stroke-width:0.6;"/><polygon fill="none" points="248.244,87.3966,259.6204,86.9761,257.0929,80.2344,248.244,87.3966" style="stroke:#181818;stroke-width:0.6;"/></g><!--reverse link game.entities.items.Item to game.entities.items.EffectItem--><g class="link" data-entity-1="game.entities.items.Item" data-entity-2="game.entities.items.EffectItem" data-source-line="158" data-uid="lnk32" id="link_game.entities.items.Item_game.entities.items.EffectItem"><path codeLine="158" d="M435.2253,160.3073 C449.2293,167.4053 454.608,170.0346 468.6,176.8506 C475.44,180.1806 482.646,183.6306 489.798,187.0146" fill="none" id="game.entities.items.Item-backto-game.entities.items.EffectItem" style="stroke:#181818;stroke-width:0.6;"/><polygon fill="none" points="425.592,155.4246,433.5977,163.5183,436.8528,157.0962,425.592,155.4246" style="stroke:#181818;stroke-width:0.6;"/></g><!--reverse link game.entities.Entity to game.entities.StaticEntity--><g class="link" data-entity-1="game.entities.Entity" data-entity-2="game.entities.StaticEntity" data-source-line="159" data-uid="lnk33" id="link_game.entities.Entity_game.entities.StaticEntity"><path codeLine="159" d="M123.5848,204.7319 C136.3468,207.3059 139.422,207.9246 152.304,210.5226" fill="none" id="game.entities.Entity-backto-game.entities.StaticEntity" style="stroke:#181818;stroke-width:0.6;"/><polygon fill="none" points="112.998,202.5966,122.8731,208.2608,124.2966,201.2029,112.998,202.5966" style="stroke:#181818;stroke-width:0.6;"/></g><!--reverse link game.entities.StaticEntity to game.entities.PacGum--><g class="link" data-entity-1="game.entities.StaticEntity" data-entity-2="game.entities.PacGum" data-source-line="161" data-uid="lnk34" id="link_game.entities.StaticEntity_game.entities.PacGum"><path codeLine="161" d="M276.792,221.8506 C292.71,221.8506 299.178,221.8506 314.904,221.8506" fill="none" id="game.entities.StaticEntity-backto-game.entities.PacGum" style="stroke:#181818;stroke-width:0.6;"/><polygon fill="none" points="265.992,221.8506,276.792,225.4506,276.792,218.2506,265.992,221.8506" style="stroke:#181818;stroke-width:0.6;"/></g><!--reverse link game.entities.StaticEntity to game.entities.SuperPacGum--><g class="link" data-entity-1="game.entities.StaticEntity" data-entity-2="game.entities.SuperPacGum" data-source-line="162" data-uid="lnk35" id="link_game.entities.StaticEntity_game.entities.SuperPacGum"><path codeLine="162" d="M271.9132,252.4873 C285.6952,259.2733 291,261.8826 305.262,268.9086" fill="none" id="game.entities.StaticEntity-backto-game.entities.SuperPacGum" style="stroke:#181818;stroke-width:0.6;"/><polygon fill="none" points="262.224,247.7166,270.3229,255.7171,273.5034,249.2576,262.224,247.7166" style="stroke:#181818;stroke-width:0.6;"/></g><!--reverse link game.entities.StaticEntity to game.entities.Wall--><g class="link" data-entity-1="game.entities.StaticEntity" data-entity-2="game.entities.Wall" data-source-line="163" data-uid="lnk36" id="link_game.entities.StaticEntity_game.entities.Wall"><path codeLine="163" d="M230.4268,257.0659 C247.0828,283.8919 270.558,316.1406 305.4,341.8506 C311.28,346.1886 318.024,349.8786 324.864,352.9686" fill="none" id="game.entities.StaticEntity-backto-game.entities.Wall" style="stroke:#181818;stroke-width:0.6;"/><polygon fill="none" points="224.73,247.8906,227.3684,258.9648,233.4853,255.1669,224.73,247.8906" style="stroke:#181818;stroke-width:0.6;"/></g><!--reverse link game.entities.Wall to game.entities.GhostHouse--><g class="link" data-entity-1="game.entities.Wall" data-entity-2="game.entities.GhostHouse" data-source-line="165" data-uid="lnk38" id="link_game.entities.Wall_game.entities.GhostHouse"><path codeLine="165" d="M423.48,366.4506 C445.92,366.4506 462.834,366.4506 487.152,366.4506" fill="none" id="game.entities.Wall-backto-game.entities.GhostHouse" style="stroke:#181818;stroke-width:0.6;"/><polygon fill="none" points="412.68,366.4506,423.48,370.0506,423.48,362.8506,412.68,366.4506" style="stroke:#181818;stroke-width:0.6;"/></g><!--reverse link game.entities.items.EffectItem to game.entities.items.Shield--><g class="link" data-entity-1="game.entities.items.EffectItem" data-entity-2="game.entities.items.Shield" data-source-line="166" data-uid="lnk39" id="link_game.entities.items.EffectItem_game.entities.items.Shield"><path codeLine="166" d="M634.6616,232.6438 C662.7656,238.9798 683.496,243.6606 709.662,249.5586" fill="none" id="game.entities.items.EffectItem-backto-game.entities.items.Shield" style="stroke:#181818;stroke-width:0.6;"/><polygon fill="none" points="624.126,230.2686,633.8698,236.1557,635.4533,229.132,624.126,230.2686" style="stroke:#181818;stroke-width:0.6;"/></g><!--reverse link game.pacmanEffect.EffectCommand to game.pacmanEffect.SpeedUpEffect--><g class="link" data-entity-1="game.pacmanEffect.EffectCommand" data-entity-2="game.pacmanEffect.SpeedUpEffect" data-source-line="168" data-uid="lnk40" id="link_game.pacmanEffect.EffectCommand_game.pacmanEffect.SpeedUpEffect"><path codeLine="168" d="M855.6051,311.397 C867.6591,303.207 871.17,301.1526 883.2,293.8506 C889.158,290.2326 895.458,286.6206 901.812,283.1106" fill="none" id="game.pacmanEffect.EffectCommand-backto-game.pacmanEffect.SpeedUpEffect" style="stroke:#181818;stroke-width:0.6;"/><polygon fill="none" points="846.672,317.4666,857.6283,314.3748,853.5819,308.4193,846.672,317.4666" style="stroke:#181818;stroke-width:0.6;"/></g><!--reverse link game.pacmanEffect.EffectCommand to game.pacmanEffect.SpeedDownEffect--><g class="link" data-entity-1="game.pacmanEffect.EffectCommand" data-entity-2="game.pacmanEffect.SpeedDownEffect" data-source-line="169" data-uid="lnk41" id="link_game.pacmanEffect.EffectCommand_game.pacmanEffect.SpeedDownEffect"><path codeLine="169" d="M857.2391,356.6086 C869.2631,354.2086 871.11,353.8386 883.2,351.4266" fill="none" id="game.pacmanEffect.EffectCommand-backto-game.pacmanEffect.SpeedDownEffect" style="stroke:#181818;stroke-width:0.6;"/><polygon fill="none" points="846.648,358.7226,857.9437,360.139,856.5344,353.0782,846.648,358.7226" style="stroke:#181818;stroke-width:0.6;"/></g><!--reverse link game.pacmanEffect.EffectCommand to game.pacmanEffect.ConfuseEffect--><g class="link" data-entity-1="game.pacmanEffect.EffectCommand" data-entity-2="game.pacmanEffect.ConfuseEffect" data-source-line="170" data-uid="lnk42" id="link_game.pacmanEffect.EffectCommand_game.pacmanEffect.ConfuseEffect"><path codeLine="170" d="M857.2395,391.8907 C871.6515,394.7647 876.078,395.6526 890.37,398.5086" fill="none" id="game.pacmanEffect.EffectCommand-backto-game.pacmanEffect.ConfuseEffect" style="stroke:#181818;stroke-width:0.6;"/><polygon fill="none" points="846.648,389.7786,856.5354,395.4212,857.9435,388.3602,846.648,389.7786" style="stroke:#181818;stroke-width:0.6;"/></g><!--reverse link game.pacmanEffect.EffectCommand to game.pacmanEffect.InvulnerableEffect--><g class="link" data-entity-1="game.pacmanEffect.EffectCommand" data-entity-2="game.pacmanEffect.InvulnerableEffect" data-source-line="171" data-uid="lnk43" id="link_game.pacmanEffect.EffectCommand_game.pacmanEffect.InvulnerableEffect"><path codeLine="171" d="M855.8225,433.9412 C867.8465,441.5492 871.152,443.2506 883.2,449.8506 C889.542,453.3246 896.286,456.7386 903.072,459.9966" fill="none" id="game.pacmanEffect.EffectCommand-backto-game.pacmanEffect.InvulnerableEffect" style="stroke:#181818;stroke-width:0.6;"/><polygon fill="none" points="846.696,428.1666,853.8976,436.9834,857.7474,430.8991,846.696,428.1666" style="stroke:#181818;stroke-width:0.6;"/></g><!--link game.entities.items.EffectItem to game.pacmanEffect.EffectCommand--><g class="link" data-entity-1="game.entities.items.EffectItem" data-entity-2="game.pacmanEffect.EffectCommand" data-source-line="175" data-uid="lnk44" id="link_game.entities.items.EffectItem_game.pacmanEffect.EffectCommand"><path codeLine="175" d="M582.378,238.7826 C611.328,259.9446 650.3918,288.498 687.0698,315.312" fill="none" id="game.entities.items.EffectItem-to-game.pacmanEffect.EffectCommand" style="stroke:#181818;stroke-width:0.6;"/><polygon fill="#181818" points="689.976,317.4366,687.0331,312.3122,687.5542,315.6661,684.2003,316.1871,689.976,317.4366" style="stroke:#181818;stroke-width:0.6;"/><text fill="#000000" font-family="sans-serif" font-size="7.8" lengthAdjust="spacing" textLength="29.052" x="642.6" y="281.3399">contains</text></g><!--SRC=[jLTVRzem47_tfx2q1wWsUDZZD4rgWRKyJ49bKxT7anp1Qc97jiFAkdxtdHr2d98GI3egaEqx_-vy_wl1KC4Iq2aBO0afKyn8HOKKG69O6seaLJpQ61fo1O7XKf21VkJ2SYOqvWBCBWKgbTb8OhY9WSuD97HfL1QOJ04X98YPrZH2CMCGoCD1ZpaowV43Cw0IYAMWp-I5i9KsYWM6rjtu9hTSH3ExtJdkPjXb2X3-I5kuff2S8pTdTezw9k_eJRPUWu9mdh08g4uLql6O2qDJYR_aFTrA7b858WGrl5KitV10VvnU5HGDPc4vX_YrX_PgL9pPWwe89Ba5aawzvZfDqVRsDIUORfZ0lpQkoGQKocrysZG7P-Jlr_nFOOgdXTJxvSukHsx91JS_lVKlP5b96GCJD0GK97SG5cRAqX2ZOtZLRj3zLSTQm74zBG1z26TxFVJClaIb_VtJA_gks3yNfdYvnqHW8egTR-wuMSadvvnpucY6hWtC8PhoxKGc2HCX1N-78gjK55OvE4FcqZ330yzDfUeRfpSAQNfD7Tw21RUPrVm2dpI4sZ9BGHtmyfXOOqs1YSpEoQ93U3JWFx0uRYiJ6mvnU9GDM0hHlBcfYrAIxmwAQdjw8wK-ACem_NP3lqPvKPV8BRoYDNYk8hlg_kFYauUBMoCDYsX43Kz05PimmsfkAxOVl2UqVSLKgxUVIT-jiE5LJS8wyP7FKURbx2d5Lf9dvJgMp6NPTA_glVsjBuApyhL7NZzssLJ-5l_3QKr29rAiCmq7aMylOIwsMIn0iLNy5c886TG5eCsChtWcrMvylQVFopCKEV03nHMoX3s2NTY6zi4rjS4B6P114wpjL1MyBYYkU_T6oLjTRvXzbUYDKyv3vq8rAUHAMq-GV5eu4mG_ZNFJvx-ZKSlyHmPdXL-9r1HHf7P4gT70pmZIqgeR7x1tVEVxBeh9YQRTUDFYTh2uCrLdTVE8wEKhFszx0LLIjuCbylkzLAYcFJdn_qgD5WjNt3ieNZhgx5ZtGwhNYuyAr8Mncmzy5rxoHiKBRzeXi9-7_JfAQYRC6g6t6nmnxYHE0ztBYXFRI_DAyIPjmsM9qJpzzW8fvx6kC9K9gol8yH3LrBWyDur6NrgdyqyqaC8mBlG_]--></g></svg>