<svg xmlns="http://www.w3.org/2000/svg" xmlns:xlink="http://www.w3.org/1999/xlink" contentStyleType="text/css" data-diagram-type="CLASS" height="512.4px" preserveAspectRatio="none" style="width:431px;height:512px;background:#FFFFFF;" version="1.1" viewBox="0 0 431 512" width="431.9px" zoomAndPan="magnify"><title>ItemFactory Structure</title><defs/><g><g class="title" data-source-line="4"><text fill="#000000" font-family="sans-serif" font-size="9.8" font-weight="bold" lengthAdjust="spacing" textLength="101.8377" x="160.1551" y="17.6661">ItemFactory Structure</text></g><!--class game.itemFactory.AbstractItemFactory--><g class="entity" data-entity="game.itemFactory.AbstractItemFactory" data-source-line="75" data-uid="ent0002" id="entity_game.itemFactory.AbstractItemFactory"><rect fill="#F1F1F1" height="46.7257" rx="1.75" ry="1.75" style="stroke:#181818;stroke-width:0.35;" width="191.2251" x="4.9" y="246.9257"/><ellipse cx="15.4" cy="258.1257" fill="#A9DCDF" rx="7.7" ry="7.7" style="stroke:#181818;stroke-width:0.7;"/><path d="M16.9312,259.3616 L14.0328,259.3616 L13.7375,260.0835 L14.0328,260.0835 Q14.4594,260.0835 14.6453,260.2476 Q14.8312,260.4116 14.8312,260.6851 Q14.8312,260.9476 14.6453,261.1116 Q14.4594,261.2757 14.0328,261.2757 L12.425,261.2757 Q11.9984,261.2757 11.8234,261.1116 Q11.6375,260.9476 11.6375,260.6741 Q11.6375,260.4116 11.8344,260.2476 Q12.0203,260.0726 12.4578,260.0835 L14.3281,255.4241 L13.5516,255.4241 Q13.125,255.4241 12.9391,255.2601 Q12.7531,255.096 12.7531,254.8226 Q12.7531,254.5601 12.9391,254.396 Q13.125,254.2319 13.5516,254.2319 L16.1219,254.2319 L18.4953,260.0835 Q18.9109,260.0835 19.0422,260.1819 Q19.3156,260.3679 19.3156,260.6851 Q19.3156,260.9476 19.1297,261.1116 Q18.9547,261.2757 18.5281,261.2757 L16.9203,261.2757 Q16.4937,261.2757 16.3078,261.1116 Q16.1219,260.9476 16.1219,260.6741 Q16.1219,260.4116 16.3078,260.2476 Q16.4937,260.0835 16.9203,260.0835 L17.2156,260.0835 L16.9312,259.3616 Z M16.4281,258.1694 L15.4766,255.8069 L14.5141,258.1694 L16.4281,258.1694 Z " fill="#000000"/><text fill="#000000" font-family="sans-serif" font-size="9.8" font-style="italic" lengthAdjust="spacing" textLength="168.8251" x="25.2" y="262.229">game.itemFactory.AbstractItemFactory</text><line style="stroke:#181818;stroke-width:0.35;" x1="5.6" x2="195.4251" y1="269.3257" y2="269.3257"/><line style="stroke:#181818;stroke-width:0.35;" x1="5.6" x2="195.4251" y1="274.9257" y2="274.9257"/><ellipse cx="12.6" cy="285.3385" fill="#84BE84" rx="2.1" ry="2.1" style="stroke:#038048;stroke-width:0.7;"/><text fill="#000000" font-family="sans-serif" font-size="9.8" font-style="italic" lengthAdjust="spacing" textLength="94.7557" x="18.9" y="288.3918">Item makeItem(int,int)</text></g><!--class game.itemFactory.AppleFactory--><g class="entity" data-entity="game.itemFactory.AppleFactory" data-source-line="79" data-uid="ent0003" id="entity_game.itemFactory.AppleFactory"><rect fill="#F1F1F1" height="46.7257" rx="1.75" ry="1.75" style="stroke:#181818;stroke-width:0.35;" width="161.2844" x="252" y="32.7257"/><ellipse cx="262.5" cy="43.9257" fill="#ADD1B2" rx="7.7" ry="7.7" style="stroke:#181818;stroke-width:0.7;"/><path d="M264.4359,41.0382 Q264.5453,40.8851 264.6766,40.8085 Q264.8078,40.7319 264.9609,40.7319 Q265.2234,40.7319 265.3875,40.9179 Q265.5516,41.0929 265.5516,41.5194 L265.5516,42.5366 Q265.5516,42.9632 265.3875,43.1491 Q265.2234,43.3351 264.9609,43.3351 Q264.7203,43.3351 264.5781,43.1929 Q264.4359,43.0616 264.3594,42.7007 Q264.3266,42.4491 264.1953,42.3179 Q263.9656,42.0554 263.5391,41.9022 Q263.1125,41.7491 262.675,41.7491 Q262.1391,41.7491 261.6906,41.9788 Q261.2531,42.2085 260.9031,42.7335 Q260.5641,43.2585 260.5641,43.9804 L260.5641,44.746 Q260.5641,45.6101 261.1875,46.1897 Q261.8109,46.7585 262.9266,46.7585 Q263.5828,46.7585 264.0422,46.5835 Q264.3156,46.4741 264.6109,46.1679 Q264.7969,45.9819 264.8953,45.9272 Q265.0047,45.8726 265.1469,45.8726 Q265.3766,45.8726 265.5516,46.0585 Q265.7375,46.2335 265.7375,46.4741 Q265.7375,46.7147 265.4969,46.9991 Q265.1469,47.4038 264.5891,47.6335 Q263.8344,47.9507 262.9266,47.9507 Q261.8656,47.9507 261.0234,47.5132 Q260.3344,47.1632 259.8531,46.4194 Q259.3719,45.6647 259.3719,44.7679 L259.3719,43.9585 Q259.3719,43.0288 259.7984,42.2304 Q260.2359,41.421 261.0016,40.9944 Q261.7672,40.5569 262.6312,40.5569 Q263.1453,40.5569 263.5937,40.6772 Q264.0531,40.7866 264.4359,41.0382 Z " fill="#000000"/><text fill="#000000" font-family="sans-serif" font-size="9.8" lengthAdjust="spacing" textLength="138.8844" x="272.3" y="48.029">game.itemFactory.AppleFactory</text><line style="stroke:#181818;stroke-width:0.35;" x1="252.7" x2="412.5844" y1="55.1257" y2="55.1257"/><line style="stroke:#181818;stroke-width:0.35;" x1="252.7" x2="412.5844" y1="60.7257" y2="60.7257"/><ellipse cx="259.7" cy="71.1385" fill="#84BE84" rx="2.1" ry="2.1" style="stroke:#038048;stroke-width:0.7;"/><text fill="#000000" font-family="sans-serif" font-size="9.8" lengthAdjust="spacing" textLength="94.7557" x="266" y="74.1918">Item makeItem(int,int)</text></g><!--class game.itemFactory.DemonFactory--><g class="entity" data-entity="game.itemFactory.DemonFactory" data-source-line="83" data-uid="ent0004" id="entity_game.itemFactory.DemonFactory"><rect fill="#F1F1F1" height="46.7257" rx="1.75" ry="1.75" style="stroke:#181818;stroke-width:0.35;" width="167.8113" x="248.5" y="104.1257"/><ellipse cx="259" cy="115.3257" fill="#ADD1B2" rx="7.7" ry="7.7" style="stroke:#181818;stroke-width:0.7;"/><path d="M260.9359,112.4382 Q261.0453,112.2851 261.1766,112.2085 Q261.3078,112.1319 261.4609,112.1319 Q261.7234,112.1319 261.8875,112.3179 Q262.0516,112.4929 262.0516,112.9194 L262.0516,113.9366 Q262.0516,114.3632 261.8875,114.5491 Q261.7234,114.7351 261.4609,114.7351 Q261.2203,114.7351 261.0781,114.5929 Q260.9359,114.4616 260.8594,114.1007 Q260.8266,113.8491 260.6953,113.7179 Q260.4656,113.4554 260.0391,113.3022 Q259.6125,113.1491 259.175,113.1491 Q258.6391,113.1491 258.1906,113.3788 Q257.7531,113.6085 257.4031,114.1335 Q257.0641,114.6585 257.0641,115.3804 L257.0641,116.146 Q257.0641,117.0101 257.6875,117.5897 Q258.3109,118.1585 259.4266,118.1585 Q260.0828,118.1585 260.5422,117.9835 Q260.8156,117.8741 261.1109,117.5679 Q261.2969,117.3819 261.3953,117.3272 Q261.5047,117.2726 261.6469,117.2726 Q261.8766,117.2726 262.0516,117.4585 Q262.2375,117.6335 262.2375,117.8741 Q262.2375,118.1147 261.9969,118.3991 Q261.6469,118.8038 261.0891,119.0335 Q260.3344,119.3507 259.4266,119.3507 Q258.3656,119.3507 257.5234,118.9132 Q256.8344,118.5632 256.3531,117.8194 Q255.8719,117.0647 255.8719,116.1679 L255.8719,115.3585 Q255.8719,114.4288 256.2984,113.6304 Q256.7359,112.821 257.5016,112.3944 Q258.2672,111.9569 259.1312,111.9569 Q259.6453,111.9569 260.0937,112.0772 Q260.5531,112.1866 260.9359,112.4382 Z " fill="#000000"/><text fill="#000000" font-family="sans-serif" font-size="9.8" lengthAdjust="spacing" textLength="145.4113" x="268.8" y="119.429">game.itemFactory.DemonFactory</text><line style="stroke:#181818;stroke-width:0.35;" x1="249.2" x2="415.6113" y1="126.5257" y2="126.5257"/><line style="stroke:#181818;stroke-width:0.35;" x1="249.2" x2="415.6113" y1="132.1257" y2="132.1257"/><ellipse cx="256.2" cy="142.5385" fill="#84BE84" rx="2.1" ry="2.1" style="stroke:#038048;stroke-width:0.7;"/><text fill="#000000" font-family="sans-serif" font-size="9.8" lengthAdjust="spacing" textLength="94.7557" x="262.5" y="145.5918">Item makeItem(int,int)</text></g><!--class game.itemFactory.CherryFactory--><g class="entity" data-entity="game.itemFactory.CherryFactory" data-source-line="87" data-uid="ent0005" id="entity_game.itemFactory.CherryFactory"><rect fill="#F1F1F1" height="46.7257" rx="1.75" ry="1.75" style="stroke:#181818;stroke-width:0.35;" width="165.6245" x="249.55" y="175.5257"/><ellipse cx="260.05" cy="186.7257" fill="#ADD1B2" rx="7.7" ry="7.7" style="stroke:#181818;stroke-width:0.7;"/><path d="M261.9859,183.8382 Q262.0953,183.6851 262.2266,183.6085 Q262.3578,183.5319 262.5109,183.5319 Q262.7734,183.5319 262.9375,183.7179 Q263.1016,183.8929 263.1016,184.3194 L263.1016,185.3366 Q263.1016,185.7632 262.9375,185.9491 Q262.7734,186.1351 262.5109,186.1351 Q262.2703,186.1351 262.1281,185.9929 Q261.9859,185.8616 261.9094,185.5007 Q261.8766,185.2491 261.7453,185.1179 Q261.5156,184.8554 261.0891,184.7022 Q260.6625,184.5491 260.225,184.5491 Q259.6891,184.5491 259.2406,184.7788 Q258.8031,185.0085 258.4531,185.5335 Q258.1141,186.0585 258.1141,186.7804 L258.1141,187.546 Q258.1141,188.4101 258.7375,188.9897 Q259.3609,189.5585 260.4766,189.5585 Q261.1328,189.5585 261.5922,189.3835 Q261.8656,189.2741 262.1609,188.9679 Q262.3469,188.7819 262.4453,188.7272 Q262.5547,188.6726 262.6969,188.6726 Q262.9266,188.6726 263.1016,188.8585 Q263.2875,189.0335 263.2875,189.2741 Q263.2875,189.5147 263.0469,189.7991 Q262.6969,190.2038 262.1391,190.4335 Q261.3844,190.7507 260.4766,190.7507 Q259.4156,190.7507 258.5734,190.3132 Q257.8844,189.9632 257.4031,189.2194 Q256.9219,188.4647 256.9219,187.5679 L256.9219,186.7585 Q256.9219,185.8288 257.3484,185.0304 Q257.7859,184.221 258.5516,183.7944 Q259.3172,183.3569 260.1812,183.3569 Q260.6953,183.3569 261.1437,183.4772 Q261.6031,183.5866 261.9859,183.8382 Z " fill="#000000"/><text fill="#000000" font-family="sans-serif" font-size="9.8" lengthAdjust="spacing" textLength="143.2245" x="269.85" y="190.829">game.itemFactory.CherryFactory</text><line style="stroke:#181818;stroke-width:0.35;" x1="250.25" x2="414.4745" y1="197.9257" y2="197.9257"/><line style="stroke:#181818;stroke-width:0.35;" x1="250.25" x2="414.4745" y1="203.5257" y2="203.5257"/><ellipse cx="257.25" cy="213.9385" fill="#84BE84" rx="2.1" ry="2.1" style="stroke:#038048;stroke-width:0.7;"/><text fill="#000000" font-family="sans-serif" font-size="9.8" lengthAdjust="spacing" textLength="94.7557" x="263.55" y="216.9918">Item makeItem(int,int)</text></g><!--class game.itemFactory.SpeedUpFactory--><g class="entity" data-entity="game.itemFactory.SpeedUpFactory" data-source-line="91" data-uid="ent0006" id="entity_game.itemFactory.SpeedUpFactory"><rect fill="#F1F1F1" height="46.7257" rx="1.75" ry="1.75" style="stroke:#181818;stroke-width:0.35;" width="177.085" x="243.95" y="246.9257"/><ellipse cx="254.45" cy="258.1257" fill="#ADD1B2" rx="7.7" ry="7.7" style="stroke:#181818;stroke-width:0.7;"/><path d="M256.3859,255.2382 Q256.4953,255.0851 256.6266,255.0085 Q256.7578,254.9319 256.9109,254.9319 Q257.1734,254.9319 257.3375,255.1179 Q257.5016,255.2929 257.5016,255.7194 L257.5016,256.7366 Q257.5016,257.1632 257.3375,257.3491 Q257.1734,257.5351 256.9109,257.5351 Q256.6703,257.5351 256.5281,257.3929 Q256.3859,257.2616 256.3094,256.9007 Q256.2766,256.6491 256.1453,256.5179 Q255.9156,256.2554 255.4891,256.1022 Q255.0625,255.9491 254.625,255.9491 Q254.0891,255.9491 253.6406,256.1788 Q253.2031,256.4085 252.8531,256.9335 Q252.5141,257.4585 252.5141,258.1804 L252.5141,258.946 Q252.5141,259.8101 253.1375,260.3897 Q253.7609,260.9585 254.8766,260.9585 Q255.5328,260.9585 255.9922,260.7835 Q256.2656,260.6741 256.5609,260.3679 Q256.7469,260.1819 256.8453,260.1272 Q256.9547,260.0726 257.0969,260.0726 Q257.3266,260.0726 257.5016,260.2585 Q257.6875,260.4335 257.6875,260.6741 Q257.6875,260.9147 257.4469,261.1991 Q257.0969,261.6038 256.5391,261.8335 Q255.7844,262.1507 254.8766,262.1507 Q253.8156,262.1507 252.9734,261.7132 Q252.2844,261.3632 251.8031,260.6194 Q251.3219,259.8647 251.3219,258.9679 L251.3219,258.1585 Q251.3219,257.2288 251.7484,256.4304 Q252.1859,255.621 252.9516,255.1944 Q253.7172,254.7569 254.5812,254.7569 Q255.0953,254.7569 255.5437,254.8772 Q256.0031,254.9866 256.3859,255.2382 Z " fill="#000000"/><text fill="#000000" font-family="sans-serif" font-size="9.8" lengthAdjust="spacing" textLength="154.685" x="264.25" y="262.229">game.itemFactory.SpeedUpFactory</text><line style="stroke:#181818;stroke-width:0.35;" x1="244.65" x2="420.335" y1="269.3257" y2="269.3257"/><line style="stroke:#181818;stroke-width:0.35;" x1="244.65" x2="420.335" y1="274.9257" y2="274.9257"/><ellipse cx="251.65" cy="285.3385" fill="#84BE84" rx="2.1" ry="2.1" style="stroke:#038048;stroke-width:0.7;"/><text fill="#000000" font-family="sans-serif" font-size="9.8" lengthAdjust="spacing" textLength="94.7557" x="257.95" y="288.3918">Item makeItem(int,int)</text></g><!--class game.itemFactory.WatermelonFactory--><g class="entity" data-entity="game.itemFactory.WatermelonFactory" data-source-line="95" data-uid="ent0007" id="entity_game.itemFactory.WatermelonFactory"><rect fill="#F1F1F1" height="46.7257" rx="1.75" ry="1.75" style="stroke:#181818;stroke-width:0.35;" width="189.0479" x="238" y="318.3257"/><ellipse cx="248.5" cy="329.5257" fill="#ADD1B2" rx="7.7" ry="7.7" style="stroke:#181818;stroke-width:0.7;"/><path d="M250.4359,326.6382 Q250.5453,326.4851 250.6766,326.4085 Q250.8078,326.3319 250.9609,326.3319 Q251.2234,326.3319 251.3875,326.5179 Q251.5516,326.6929 251.5516,327.1194 L251.5516,328.1366 Q251.5516,328.5632 251.3875,328.7491 Q251.2234,328.9351 250.9609,328.9351 Q250.7203,328.9351 250.5781,328.7929 Q250.4359,328.6616 250.3594,328.3007 Q250.3266,328.0491 250.1953,327.9179 Q249.9656,327.6554 249.5391,327.5022 Q249.1125,327.3491 248.675,327.3491 Q248.1391,327.3491 247.6906,327.5788 Q247.2531,327.8085 246.9031,328.3335 Q246.5641,328.8585 246.5641,329.5804 L246.5641,330.346 Q246.5641,331.2101 247.1875,331.7897 Q247.8109,332.3585 248.9266,332.3585 Q249.5828,332.3585 250.0422,332.1835 Q250.3156,332.0741 250.6109,331.7679 Q250.7969,331.5819 250.8953,331.5272 Q251.0047,331.4726 251.1469,331.4726 Q251.3766,331.4726 251.5516,331.6585 Q251.7375,331.8335 251.7375,332.0741 Q251.7375,332.3147 251.4969,332.5991 Q251.1469,333.0038 250.5891,333.2335 Q249.8344,333.5507 248.9266,333.5507 Q247.8656,333.5507 247.0234,333.1132 Q246.3344,332.7632 245.8531,332.0194 Q245.3719,331.2647 245.3719,330.3679 L245.3719,329.5585 Q245.3719,328.6288 245.7984,327.8304 Q246.2359,327.021 247.0016,326.5944 Q247.7672,326.1569 248.6312,326.1569 Q249.1453,326.1569 249.5937,326.2772 Q250.0531,326.3866 250.4359,326.6382 Z " fill="#000000"/><text fill="#000000" font-family="sans-serif" font-size="9.8" lengthAdjust="spacing" textLength="166.6479" x="258.3" y="333.629">game.itemFactory.WatermelonFactory</text><line style="stroke:#181818;stroke-width:0.35;" x1="238.7" x2="426.3479" y1="340.7257" y2="340.7257"/><line style="stroke:#181818;stroke-width:0.35;" x1="238.7" x2="426.3479" y1="346.3257" y2="346.3257"/><ellipse cx="245.7" cy="356.7385" fill="#84BE84" rx="2.1" ry="2.1" style="stroke:#038048;stroke-width:0.7;"/><text fill="#000000" font-family="sans-serif" font-size="9.8" lengthAdjust="spacing" textLength="94.7557" x="252" y="359.7918">Item makeItem(int,int)</text></g><!--class game.itemFactory.ShieldFactory--><g class="entity" data-entity="game.itemFactory.ShieldFactory" data-source-line="98" data-uid="ent0008" id="entity_game.itemFactory.ShieldFactory"><rect fill="#F1F1F1" height="46.7257" rx="1.75" ry="1.75" style="stroke:#181818;stroke-width:0.35;" width="163.4616" x="250.6" y="389.7257"/><ellipse cx="261.1" cy="400.9257" fill="#ADD1B2" rx="7.7" ry="7.7" style="stroke:#181818;stroke-width:0.7;"/><path d="M263.0359,398.0382 Q263.1453,397.8851 263.2766,397.8085 Q263.4078,397.7319 263.5609,397.7319 Q263.8234,397.7319 263.9875,397.9179 Q264.1516,398.0929 264.1516,398.5194 L264.1516,399.5366 Q264.1516,399.9632 263.9875,400.1491 Q263.8234,400.3351 263.5609,400.3351 Q263.3203,400.3351 263.1781,400.1929 Q263.0359,400.0616 262.9594,399.7007 Q262.9266,399.4491 262.7953,399.3179 Q262.5656,399.0554 262.1391,398.9022 Q261.7125,398.7491 261.275,398.7491 Q260.7391,398.7491 260.2906,398.9788 Q259.8531,399.2085 259.5031,399.7335 Q259.1641,400.2585 259.1641,400.9804 L259.1641,401.746 Q259.1641,402.6101 259.7875,403.1897 Q260.4109,403.7585 261.5266,403.7585 Q262.1828,403.7585 262.6422,403.5835 Q262.9156,403.4741 263.2109,403.1679 Q263.3969,402.9819 263.4953,402.9272 Q263.6047,402.8726 263.7469,402.8726 Q263.9766,402.8726 264.1516,403.0585 Q264.3375,403.2335 264.3375,403.4741 Q264.3375,403.7147 264.0969,403.9991 Q263.7469,404.4038 263.1891,404.6335 Q262.4344,404.9507 261.5266,404.9507 Q260.4656,404.9507 259.6234,404.5132 Q258.9344,404.1632 258.4531,403.4194 Q257.9719,402.6647 257.9719,401.7679 L257.9719,400.9585 Q257.9719,400.0288 258.3984,399.2304 Q258.8359,398.421 259.6016,397.9944 Q260.3672,397.5569 261.2312,397.5569 Q261.7453,397.5569 262.1937,397.6772 Q262.6531,397.7866 263.0359,398.0382 Z " fill="#000000"/><text fill="#000000" font-family="sans-serif" font-size="9.8" lengthAdjust="spacing" textLength="141.0616" x="270.9" y="405.029">game.itemFactory.ShieldFactory</text><line style="stroke:#181818;stroke-width:0.35;" x1="251.3" x2="413.3616" y1="412.1257" y2="412.1257"/><line style="stroke:#181818;stroke-width:0.35;" x1="251.3" x2="413.3616" y1="417.7257" y2="417.7257"/><ellipse cx="258.3" cy="428.1385" fill="#84BE84" rx="2.1" ry="2.1" style="stroke:#038048;stroke-width:0.7;"/><text fill="#000000" font-family="sans-serif" font-size="9.8" lengthAdjust="spacing" textLength="94.7557" x="264.6" y="431.1918">Item makeItem(int,int)</text></g><!--class game.itemFactory.BananaFactory--><g class="entity" data-entity="game.itemFactory.BananaFactory" data-source-line="101" data-uid="ent0009" id="entity_game.itemFactory.BananaFactory"><rect fill="#F1F1F1" height="46.7257" rx="1.75" ry="1.75" style="stroke:#181818;stroke-width:0.35;" width="170.0077" x="247.45" y="461.1257"/><ellipse cx="257.95" cy="472.3257" fill="#ADD1B2" rx="7.7" ry="7.7" style="stroke:#181818;stroke-width:0.7;"/><path d="M259.8859,469.4382 Q259.9953,469.2851 260.1266,469.2085 Q260.2578,469.1319 260.4109,469.1319 Q260.6734,469.1319 260.8375,469.3179 Q261.0016,469.4929 261.0016,469.9194 L261.0016,470.9366 Q261.0016,471.3632 260.8375,471.5491 Q260.6734,471.7351 260.4109,471.7351 Q260.1703,471.7351 260.0281,471.5929 Q259.8859,471.4616 259.8094,471.1007 Q259.7766,470.8491 259.6453,470.7179 Q259.4156,470.4554 258.9891,470.3022 Q258.5625,470.1491 258.125,470.1491 Q257.5891,470.1491 257.1406,470.3788 Q256.7031,470.6085 256.3531,471.1335 Q256.0141,471.6585 256.0141,472.3804 L256.0141,473.146 Q256.0141,474.0101 256.6375,474.5897 Q257.2609,475.1585 258.3766,475.1585 Q259.0328,475.1585 259.4922,474.9835 Q259.7656,474.8741 260.0609,474.5679 Q260.2469,474.3819 260.3453,474.3272 Q260.4547,474.2726 260.5969,474.2726 Q260.8266,474.2726 261.0016,474.4585 Q261.1875,474.6335 261.1875,474.8741 Q261.1875,475.1147 260.9469,475.3991 Q260.5969,475.8038 260.0391,476.0335 Q259.2844,476.3507 258.3766,476.3507 Q257.3156,476.3507 256.4734,475.9132 Q255.7844,475.5632 255.3031,474.8194 Q254.8219,474.0647 254.8219,473.1679 L254.8219,472.3585 Q254.8219,471.4288 255.2484,470.6304 Q255.6859,469.821 256.4516,469.3944 Q257.2172,468.9569 258.0812,468.9569 Q258.5953,468.9569 259.0437,469.0772 Q259.5031,469.1866 259.8859,469.4382 Z " fill="#000000"/><text fill="#000000" font-family="sans-serif" font-size="9.8" lengthAdjust="spacing" textLength="147.6077" x="267.75" y="476.429">game.itemFactory.BananaFactory</text><line style="stroke:#181818;stroke-width:0.35;" x1="248.15" x2="416.7577" y1="483.5257" y2="483.5257"/><line style="stroke:#181818;stroke-width:0.35;" x1="248.15" x2="416.7577" y1="489.1257" y2="489.1257"/><ellipse cx="255.15" cy="499.5385" fill="#84BE84" rx="2.1" ry="2.1" style="stroke:#038048;stroke-width:0.7;"/><text fill="#000000" font-family="sans-serif" font-size="9.8" lengthAdjust="spacing" textLength="94.7557" x="261.45" y="502.5918">Item makeItem(int,int)</text></g><!--reverse link game.itemFactory.AbstractItemFactory to game.itemFactory.AppleFactory--><g class="link" data-entity-1="game.itemFactory.AbstractItemFactory" data-entity-2="game.itemFactory.AppleFactory" data-source-line="108" data-uid="lnk10" id="link_game.itemFactory.AbstractItemFactory_game.itemFactory.AppleFactory"><path codeLine="108" d="M119.6186,235.7325 C140.4926,198.0025 180.061,135.0307 238,91.8757 C244.146,87.2977 250.957,83.2377 258.013,79.6537" fill="none" id="game.itemFactory.AbstractItemFactory-backto-game.itemFactory.AppleFactory" style="stroke:#181818;stroke-width:0.7;"/><polygon fill="none" points="113.519,246.7577,123.2937,237.7657,115.9436,233.6993,113.519,246.7577" style="stroke:#181818;stroke-width:0.7;"/></g><!--reverse link game.itemFactory.AbstractItemFactory to game.itemFactory.DemonFactory--><g class="link" data-entity-1="game.itemFactory.AbstractItemFactory" data-entity-2="game.itemFactory.DemonFactory" data-source-line="115" data-uid="lnk11" id="link_game.itemFactory.AbstractItemFactory_game.itemFactory.DemonFactory"><path codeLine="115" d="M135.8452,238.3056 C162.1232,214.7156 195.832,187.0757 238,163.2757 C245.812,158.8657 254.282,154.7847 262.822,151.0817" fill="none" id="game.itemFactory.AbstractItemFactory-backto-game.itemFactory.DemonFactory" style="stroke:#181818;stroke-width:0.7;"/><polygon fill="none" points="126.469,246.7227,138.6509,241.431,133.0395,235.1802,126.469,246.7227" style="stroke:#181818;stroke-width:0.7;"/></g><!--reverse link game.itemFactory.AbstractItemFactory to game.itemFactory.CherryFactory--><g class="link" data-entity-1="game.itemFactory.AbstractItemFactory" data-entity-2="game.itemFactory.CherryFactory" data-source-line="116" data-uid="lnk12" id="link_game.itemFactory.AbstractItemFactory_game.itemFactory.CherryFactory"><path codeLine="116" d="M189.0311,243.1705 C214.3711,235.3235 230.566,230.3147 255.913,222.4677" fill="none" id="game.itemFactory.AbstractItemFactory-backto-game.itemFactory.CherryFactory" style="stroke:#181818;stroke-width:0.7;"/><polygon fill="none" points="176.995,246.8977,190.2735,247.1825,187.7887,239.1584,176.995,246.8977" style="stroke:#181818;stroke-width:0.7;"/></g><!--reverse link game.itemFactory.AbstractItemFactory to game.itemFactory.SpeedUpFactory--><g class="link" data-entity-1="game.itemFactory.AbstractItemFactory" data-entity-2="game.itemFactory.SpeedUpFactory" data-source-line="118" data-uid="lnk13" id="link_game.itemFactory.AbstractItemFactory_game.itemFactory.SpeedUpFactory"><path codeLine="118" d="M208.894,270.3757 C224.658,270.3757 228.333,270.3757 243.908,270.3757" fill="none" id="game.itemFactory.AbstractItemFactory-backto-game.itemFactory.SpeedUpFactory" style="stroke:#181818;stroke-width:0.7;"/><polygon fill="none" points="196.294,270.3757,208.894,274.5757,208.894,266.1757,196.294,270.3757" style="stroke:#181818;stroke-width:0.7;"/></g><!--reverse link game.itemFactory.AbstractItemFactory to game.itemFactory.WatermelonFactory--><g class="link" data-entity-1="game.itemFactory.AbstractItemFactory" data-entity-2="game.itemFactory.WatermelonFactory" data-source-line="122" data-uid="lnk14" id="link_game.itemFactory.AbstractItemFactory_game.itemFactory.WatermelonFactory"><path codeLine="122" d="M189.0311,297.5809 C214.3711,305.4279 230.566,310.4367 255.913,318.2837" fill="none" id="game.itemFactory.AbstractItemFactory-backto-game.itemFactory.WatermelonFactory" style="stroke:#181818;stroke-width:0.7;"/><polygon fill="none" points="176.995,293.8537,187.7887,301.5929,190.2735,293.5689,176.995,293.8537" style="stroke:#181818;stroke-width:0.7;"/></g><!--reverse link game.itemFactory.AbstractItemFactory to game.itemFactory.ShieldFactory--><g class="link" data-entity-1="game.itemFactory.AbstractItemFactory" data-entity-2="game.itemFactory.ShieldFactory" data-source-line="126" data-uid="lnk15" id="link_game.itemFactory.AbstractItemFactory_game.itemFactory.ShieldFactory"><path codeLine="126" d="M135.8452,302.4458 C162.1232,326.0358 195.832,353.6757 238,377.4757 C245.812,381.8857 254.282,385.9667 262.822,389.6697" fill="none" id="game.itemFactory.AbstractItemFactory-backto-game.itemFactory.ShieldFactory" style="stroke:#181818;stroke-width:0.7;"/><polygon fill="none" points="126.469,294.0287,133.0395,305.5712,138.6509,299.3204,126.469,294.0287" style="stroke:#181818;stroke-width:0.7;"/></g><!--reverse link game.itemFactory.AbstractItemFactory to game.itemFactory.BananaFactory--><g class="link" data-entity-1="game.itemFactory.AbstractItemFactory" data-entity-2="game.itemFactory.BananaFactory" data-source-line="129" data-uid="lnk16" id="link_game.itemFactory.AbstractItemFactory_game.itemFactory.BananaFactory"><path codeLine="129" d="M119.6186,305.0189 C140.4926,342.7489 180.061,405.7207 238,448.8757 C244.146,453.4537 250.957,457.5137 258.013,461.0977" fill="none" id="game.itemFactory.AbstractItemFactory-backto-game.itemFactory.BananaFactory" style="stroke:#181818;stroke-width:0.7;"/><polygon fill="none" points="113.519,293.9937,115.9436,307.0521,123.2937,302.9856,113.519,293.9937" style="stroke:#181818;stroke-width:0.7;"/></g><!--SRC=[fLRBZjem5DtxAonr0QCM5brtCmDJPXQLKADgsgL9BearYMtPpeYKph_NZq0S9e50X41-79_xlXS56ZDIW18aXWW4aKHpYHbdW7BOQgmvbZJDD4weX5XJpj14lL9caGNEAGDT2S1SwemZJNKE-5b3yPt4XgV2aPPbh4i92A59d1EbS6h4pO4PB0KrfmQivYz4WomWvmplqUGTJSX6QMauSDUR7_oDilJHRgiQtqyT2O3abxY8Mq8nJBg7MoCj-XD-ABTRa90y5oG5h8Gq07jEcSQ2cryq-OpVE4sm19Q0dAua4HcDrTVbtV5AWLvRxDHytQbzdHuEtKbRZhbp2tjtrgvx8KnCl5tdS0-4cSy0u283AQiZyAolcXXvVoZwz-YRtPghmxfowvbRKqRrxt3pnw8sdET064x0YECL94VNbI8nsJEz6-Bc-hK77oYfMXv8Momk9ceQXYCo-hSETgU8wdYmFtZc_QSf7CBIt4NjYUeDtzLX6vHgZoRkiMuIpkyNl2W8Ip24EoktVMqajWw62OuqqJGEezVOa3a3hAH-kxeuroHUbSw4g-BKcurHAK0sf3vVjgOhmOANmwgkIPrUAIyapo_tc8n2ddWOwd8iRLhY_Bw-3zla7eNvua9Ta5Um2ziHlhYkOBZxA6sDXrnNCxZkDuh1juLH57Mh7iNHJ991D7sQk82EOV3jT9WfPZJsZfXl_sQp2oCJ3KgnXgWlSqwrgCk_GuDm07Vh7lIiNWlgSDzEu9Bsz7chTVK-jSItUDtvwtQDVLQC2LXOg6DuMkLwYoSymHWLskL-gaFhJrw75gRpctbsY-PDe8PdV9XLOsp-q9wkJLy_yAvz5SpAQv_Q0JWgoc4hFHNkfck7q5N6bNxYfHfHQrxm6DLRFVm_]--></g></svg>